<svg xmlns="http://www.w3.org/2000/svg" viewBox="0 0 1595 1520"><path fill="#07090D" fill-rule="evenodd" d="M768.0,1510.5C768.0,1509.7 766.9,1508.0 765.5,1506.8C764.2,1505.7 762.6,1503.2 762.0,1501.4C761.4,1499.6 759.6,1496.5 758.0,1494.5C756.4,1492.5 754.6,1489.2 754.0,1487.2C753.3,1485.2 751.3,1480.6 749.5,1477.0C742.7,1463.6 740.6,1442.1 743.5,1417.0C744.3,1410.1 745.4,1396.3 746.0,1386.4C746.6,1376.4 747.9,1363.3 749.0,1357.4C752.6,1337.8 752.7,1314.0 749.1,1314.0C747.7,1314.0 746.2,1319.0 745.5,1326.3C745.2,1330.1 744.2,1335.1 743.4,1337.3C742.5,1339.6 740.9,1343.8 739.9,1346.7C738.8,1349.8 737.4,1358.4 736.5,1368.2C734.8,1385.9 734.7,1386.4 731.9,1396.0C730.8,1399.6 729.1,1407.3 728.1,1413.2C727.0,1419.1 725.4,1425.4 724.5,1427.2C723.6,1429.0 721.9,1433.0 720.9,1436.0C717.3,1446.1 707.5,1458.9 697.0,1467.0C693.3,1469.8 684.6,1474.9 678.0,1478.0C675.5,1479.1 670.7,1481.5 667.3,1483.2C660.1,1486.7 657.0,1486.5 655.1,1482.3C652.6,1477.0 649.9,1458.5 649.3,1443.5C648.8,1429.9 649.0,1427.3 651.3,1416.0C652.7,1409.1 654.4,1400.6 655.0,1397.1C655.6,1393.6 657.2,1388.4 658.5,1385.4C659.8,1382.5 661.6,1376.4 662.5,1371.8C663.4,1367.2 665.2,1361.1 666.6,1358.2C667.9,1355.2 669.4,1349.2 670.0,1344.7C671.3,1334.1 671.3,1332.8 669.6,1330.4C668.1,1328.5 668.1,1328.5 666.1,1330.5C665.0,1331.7 663.5,1335.6 662.6,1340.5C661.7,1344.9 659.9,1350.0 658.6,1352.0C656.0,1355.8 654.5,1360.2 653.5,1366.7C653.1,1369.1 651.7,1372.7 650.3,1374.7C648.9,1376.8 646.9,1381.0 645.8,1384.0C644.8,1387.0 643.1,1390.6 642.1,1392.0C641.1,1393.4 639.2,1396.6 638.0,1399.0C634.8,1405.3 631.8,1409.1 621.8,1419.1C608.7,1432.2 602.1,1436.1 580.5,1444.0C577.8,1445.0 571.2,1446.2 565.9,1446.5C557.7,1447.2 556.2,1447.0 554.7,1445.6C553.8,1444.6 553.0,1443.1 553.0,1442.1C553.0,1439.4 556.4,1430.1 559.3,1425.0C560.7,1422.5 562.4,1417.8 563.1,1414.5C563.7,1411.2 565.5,1406.2 567.0,1403.5C568.5,1400.8 570.5,1396.0 571.4,1393.0C572.2,1390.0 574.1,1385.9 575.4,1383.9C576.8,1381.9 578.8,1378.0 579.8,1375.4C580.8,1372.7 582.9,1368.8 584.3,1366.6C585.8,1364.5 587.5,1360.9 588.1,1358.6C588.7,1356.4 590.4,1352.7 591.9,1350.5C593.5,1348.3 595.5,1344.0 596.5,1341.0C597.5,1338.0 599.4,1334.1 600.6,1332.4C601.9,1330.8 603.6,1326.4 604.3,1322.7C605.2,1318.5 606.7,1315.0 608.4,1313.0C610.2,1310.8 611.0,1308.7 611.0,1306.0C611.0,1298.9 607.4,1299.9 605.2,1307.5C604.4,1310.2 603.1,1312.0 601.1,1313.1C599.1,1314.3 597.7,1316.3 596.6,1319.7C595.7,1322.4 593.6,1325.9 592.0,1327.5C590.4,1329.1 588.4,1332.4 587.5,1335.0C586.6,1337.6 584.8,1340.8 583.5,1342.0C582.1,1343.3 580.4,1346.1 579.8,1348.2C579.2,1350.3 577.2,1353.7 575.3,1355.6C573.5,1357.6 572.0,1359.5 572.0,1360.0C572.0,1362.7 558.0,1376.1 551.5,1379.6C549.9,1380.5 546.2,1382.7 543.5,1384.6C540.8,1386.4 533.3,1389.6 527.0,1391.6L515.5,1395.3L501.5,1394.6C487.3,1394.0 468.9,1391.0 466.4,1388.9C464.1,1387.0 464.8,1383.3 467.8,1381.2C471.9,1378.2 481.0,1369.2 481.0,1368.1C481.0,1367.5 482.3,1365.6 483.9,1363.8C485.5,1362.0 490.5,1356.2 495.2,1351.0C499.8,1345.8 506.1,1338.3 509.3,1334.5C512.5,1330.7 516.8,1325.6 518.8,1323.3C527.0,1314.1 537.3,1299.6 539.4,1294.5C540.3,1292.3 542.0,1289.8 543.1,1288.9C545.8,1286.9 546.8,1279.9 544.7,1278.2C543.4,1277.1 541.5,1278.4 532.3,1286.3C520.1,1296.8 511.6,1302.6 498.5,1309.4C486.5,1315.6 475.6,1317.4 450.0,1317.4C431.5,1317.5 422.5,1316.4 417.0,1313.4C413.5,1311.6 404.0,1302.6 404.0,1301.1C404.0,1300.4 405.2,1298.8 406.6,1297.3C408.8,1295.1 409.7,1294.9 413.6,1295.5C417.7,1296.1 418.8,1295.7 427.0,1291.0C431.9,1288.2 436.2,1285.4 436.6,1284.9C436.9,1284.3 440.4,1282.3 444.4,1280.5C448.3,1278.6 452.6,1276.5 454.0,1275.7C460.3,1272.1 475.2,1265.0 476.4,1265.0C477.2,1265.0 480.0,1263.5 482.6,1261.7C485.3,1259.8 489.5,1257.3 492.0,1256.2C494.5,1255.0 498.5,1252.4 501.0,1250.5C513.0,1241.2 515.7,1239.1 522.1,1233.5C525.9,1230.2 529.0,1227.3 529.0,1226.9C529.0,1226.5 530.6,1223.9 532.6,1221.0C534.6,1218.1 537.0,1213.3 538.1,1210.2C539.1,1207.2 541.1,1202.8 542.4,1200.4C543.7,1198.0 545.6,1193.8 546.5,1191.0C548.3,1185.5 553.8,1175.9 557.1,1172.4C559.3,1170.1 569.1,1167.3 570.9,1168.5C571.4,1168.8 584.6,1169.1 600.2,1169.2C630.9,1169.4 633.1,1169.0 635.7,1164.0C636.5,1162.6 636.8,1159.8 636.5,1157.5C636.2,1155.3 634.9,1145.6 633.6,1136.0C632.3,1126.4 630.9,1114.5 630.6,1109.5C629.2,1090.6 625.8,1056.0 623.9,1042.9C622.9,1035.4 622.0,1026.6 622.0,1023.3C622.0,1017.3 620.2,1013.0 617.5,1013.0C616.8,1013.0 615.0,1014.5 613.6,1016.2C609.9,1021.0 603.8,1027.9 601.1,1030.4C599.8,1031.5 597.1,1034.1 594.9,1036.1C585.8,1044.6 554.7,1051.2 550.1,1045.6C548.3,1043.4 551.4,1036.4 557.3,1029.6C560.2,1026.2 563.2,1022.1 563.9,1020.3C564.6,1018.6 566.2,1016.2 567.5,1015.0C570.4,1012.3 572.9,1002.5 571.2,1000.8C569.6,999.2 565.2,1000.7 564.5,1003.3C563.3,1007.0 539.3,1030.0 534.1,1032.3C531.6,1033.4 527.9,1035.3 526.0,1036.6C521.3,1039.6 516.8,1040.7 501.4,1042.4C494.3,1043.2 486.1,1044.4 483.3,1044.9C476.3,1046.3 475.0,1045.7 475.0,1040.9C475.0,1037.5 475.7,1036.2 480.6,1031.2C483.7,1028.1 487.5,1023.9 488.9,1022.0C490.3,1020.1 492.6,1017.3 494.0,1015.8C496.5,1013.2 501.0,1007.6 507.5,999.0C509.4,996.5 512.1,992.4 513.5,989.8C514.8,987.2 517.1,984.0 518.5,982.6C521.3,979.8 521.8,974.9 519.6,973.0C518.4,972.0 516.4,973.5 508.7,981.2C497.4,992.5 482.3,1006.1 478.4,1008.6C476.8,1009.6 474.0,1011.7 472.2,1013.2C470.4,1014.7 468.4,1016.0 467.7,1016.0C467.1,1016.0 464.1,1017.5 461.0,1019.4C458.0,1021.3 452.6,1023.6 449.0,1024.5C445.4,1025.4 441.3,1026.9 439.9,1028.0C435.2,1031.4 429.8,1032.2 410.8,1032.6C394.0,1032.9 392.0,1032.8 390.0,1031.2C388.4,1029.9 387.9,1028.8 388.4,1027.3C389.0,1025.4 391.1,1023.3 405.3,1010.7C407.9,1008.4 411.1,1005.4 412.3,1004.1C413.5,1002.8 415.3,1001.0 416.3,1000.1C419.0,997.8 435.2,982.5 437.0,980.5C437.8,979.6 439.9,977.6 441.5,976.0C445.7,971.8 445.1,972.5 454.2,961.8C466.1,947.9 471.5,939.8 470.6,937.3C469.7,935.1 467.3,935.8 465.0,939.0C463.8,940.6 462.0,942.0 461.0,942.0C459.9,942.0 457.6,943.8 455.9,946.0C454.1,948.2 452.2,950.0 451.6,950.0C451.0,950.0 448.9,951.6 447.0,953.5C440.9,959.7 434.6,964.7 430.0,967.0C427.5,968.3 424.1,970.3 422.5,971.5C420.9,972.7 417.9,974.3 416.0,975.0C414.1,975.7 410.5,977.5 408.0,979.1C405.5,980.6 401.5,982.4 399.0,983.0C396.6,983.7 392.0,985.5 388.9,987.0C383.9,989.6 372.4,992.7 354.0,996.6C350.4,997.3 341.3,997.9 333.4,998.0C311.7,998.0 297.3,994.6 295.5,988.9C294.7,986.3 296.3,984.4 301.9,981.4C308.7,977.7 320.5,970.3 329.3,964.3C331.1,963.1 335.5,960.5 339.2,958.6C342.8,956.6 346.1,954.6 346.5,954.0C346.9,953.4 349.7,951.6 352.8,949.9C361.5,945.3 372.7,937.5 380.8,930.3C382.8,928.5 385.9,926.0 387.6,924.8C398.0,917.3 400.7,915.2 402.8,913.0C404.1,911.6 406.6,909.1 408.2,907.3C410.2,905.2 411.0,903.6 410.6,902.4C409.6,899.8 402.7,901.1 398.5,904.9C396.5,906.6 394.3,908.0 393.6,908.0C392.8,908.0 390.0,909.5 387.3,911.4C384.6,913.2 380.4,915.8 378.0,917.0C375.5,918.2 372.6,920.0 371.5,921.0C370.4,922.0 366.6,924.0 363.1,925.4C359.5,926.8 355.9,928.7 355.0,929.5C354.1,930.3 350.7,931.9 347.5,933.0C344.3,934.1 339.7,936.2 337.3,937.6C334.7,939.1 329.0,940.9 323.2,942.0C317.9,943.0 310.1,944.8 306.0,946.0C299.9,947.8 294.8,948.3 279.4,948.7C258.8,949.3 248.0,948.3 239.3,945.0C236.5,944.0 230.7,942.2 226.4,941.1C216.8,938.6 202.9,932.7 201.5,930.5C200.0,928.1 203.0,926.3 211.3,925.0C215.3,924.3 221.7,922.6 225.5,921.0C229.3,919.5 235.2,917.5 238.5,916.5C241.8,915.6 246.3,913.8 248.5,912.5C250.7,911.2 255.3,909.5 258.7,908.6C262.2,907.8 267.1,906.0 269.7,904.7C272.4,903.4 277.0,901.5 280.0,900.5C283.0,899.6 287.5,897.5 290.0,896.0C292.5,894.5 296.8,892.7 299.5,892.1C302.2,891.4 306.1,889.8 308.1,888.5C310.1,887.2 314.8,885.2 318.7,884.1C322.8,882.9 326.6,881.0 328.0,879.5C329.2,878.2 332.4,876.4 335.0,875.5C337.6,874.6 340.9,872.6 342.5,871.0C344.1,869.4 346.9,867.5 348.9,866.9C350.9,866.3 353.1,865.3 353.8,864.7C355.5,863.4 355.3,860.1 353.5,859.4C350.7,858.3 343.2,860.1 338.9,862.9C336.2,864.6 332.0,866.2 328.1,866.9C324.6,867.5 319.2,869.2 316.1,870.8C312.8,872.5 307.2,874.2 302.6,875.0C298.2,875.6 291.5,877.5 287.6,879.0C283.7,880.6 276.0,882.6 270.5,883.5C265.0,884.4 256.4,886.2 251.5,887.5C239.1,890.9 217.2,892.4 193.5,891.6C173.3,890.9 167.5,890.1 159.5,887.0C156.8,885.9 151.9,884.6 148.8,884.0C144.1,883.1 142.8,882.4 141.8,880.2C141.1,878.8 138.4,876.5 135.8,875.2C129.1,871.8 123.0,865.9 123.0,862.8C123.0,858.7 127.0,855.9 134.3,855.0C145.0,853.7 158.5,851.1 174.5,847.4C182.8,845.5 196.0,843.1 203.9,842.0C211.9,840.9 221.5,839.1 225.4,838.0C229.3,836.9 237.7,835.3 244.0,834.5C251.0,833.5 258.2,831.8 262.5,830.1C266.4,828.5 271.5,827.0 274.0,826.6C283.7,825.1 288.7,823.7 293.0,820.9C295.9,819.1 300.0,817.7 304.5,817.0C312.6,815.7 315.1,814.1 312.9,811.4C311.7,809.9 310.1,809.8 300.0,810.3C292.9,810.7 284.9,811.9 279.0,813.4C273.8,814.7 266.4,816.1 262.5,816.5C258.6,816.8 243.1,818.5 228.0,820.2C192.3,824.1 166.2,824.5 152.5,821.3C147.6,820.1 138.8,818.4 133.0,817.5C127.2,816.6 119.8,814.7 116.5,813.4C113.2,812.1 107.6,810.2 104.0,809.0C100.4,807.9 95.5,805.7 93.1,804.0C90.7,802.4 88.2,801.0 87.5,801.0C86.8,801.0 84.5,799.6 82.4,797.9C80.2,796.2 76.7,793.9 74.5,792.8C69.0,789.9 59.3,780.3 57.5,775.7C55.9,771.6 56.3,769.8 59.9,766.6C61.8,764.9 62.5,764.8 67.3,765.9C71.2,766.7 78.3,766.8 95.0,766.0C107.4,765.5 136.4,764.3 159.5,763.5C229.9,761.0 258.3,759.0 261.8,756.4C266.0,753.4 259.4,752.3 227.5,751.0C200.4,749.9 189.5,748.9 177.6,746.4C173.7,745.6 163.0,744.1 153.8,743.0C142.5,741.7 135.0,740.2 130.6,738.6C127.1,737.2 119.5,735.4 113.8,734.4C108.1,733.5 101.5,731.7 99.0,730.5C96.5,729.2 91.7,727.4 88.5,726.5C85.2,725.5 80.5,723.7 78.0,722.4C75.5,721.1 70.9,719.1 67.7,718.0C64.4,716.9 60.3,714.7 58.4,713.0C56.5,711.4 54.4,710.0 53.7,710.0C53.0,710.0 51.2,709.3 49.6,708.5C48.0,707.6 46.1,707.1 45.4,707.4C43.5,708.1 42.8,712.9 44.2,715.4C47.9,721.9 50.6,725.3 53.5,727.3C58.8,730.9 64.1,737.9 63.4,740.4C62.7,742.9 57.6,747.8 53.3,750.1C50.0,751.9 49.6,753.0 48.5,763.1C48.0,767.9 47.3,769.5 44.0,773.0L40.1,777.2L31.8,776.5C21.6,775.6 19.2,774.7 18.5,771.7C18.1,770.4 18.3,759.1 18.9,746.6L20.0,723.8L23.6,716.1C26.5,709.8 28.1,707.6 32.6,704.2C35.6,701.9 38.0,699.5 38.0,698.9C38.0,698.3 35.4,694.8 32.1,691.2C28.9,687.5 25.5,683.1 24.6,681.3C23.7,679.5 22.3,677.7 21.5,677.3C20.7,676.8 18.7,674.3 17.0,671.7C15.4,669.1 13.6,667.0 13.1,667.0C11.0,667.0 9.2,658.8 8.5,646.3C7.8,634.8 8.0,632.7 9.4,630.5C12.2,626.3 14.5,627.3 19.6,635.2C22.2,639.2 24.7,643.8 25.3,645.5C27.2,651.4 28.3,652.1 54.5,664.6C58.4,666.4 63.8,668.2 66.5,668.6C69.2,668.9 74.5,670.5 78.2,672.1C82.6,674.1 89.3,675.7 98.0,677.0C105.2,678.1 115.1,680.0 119.8,681.1C124.6,682.2 135.2,683.8 143.5,684.6C167.6,686.9 176.7,687.9 190.0,690.0C207.9,692.8 240.8,694.7 245.9,693.2C254.8,690.5 250.8,686.6 236.9,684.5C231.7,683.7 224.2,682.0 220.1,680.6C216.1,679.2 207.5,677.3 201.1,676.4C194.7,675.6 186.8,673.8 183.5,672.4C180.2,671.1 173.9,669.3 169.5,668.4C165.1,667.5 159.0,665.6 156.0,664.3C153.0,662.9 146.5,661.0 141.7,659.9C136.8,658.8 131.2,657.1 129.2,656.1C127.1,655.1 122.8,653.5 119.5,652.6C113.5,650.9 102.4,646.2 87.5,639.0C80.6,635.6 76.2,634.5 71.2,634.9C69.0,635.1 69.9,639.1 73.0,642.6C76.4,646.5 77.7,652.1 76.1,655.6C74.6,658.9 70.1,658.8 66.9,655.4C65.6,654.0 62.9,652.0 61.0,651.0C56.6,648.7 52.5,644.3 51.7,641.1C51.2,639.1 51.9,637.8 55.5,634.5C58.0,632.3 60.0,630.1 60.0,629.7C60.0,627.3 54.4,620.7 50.8,618.9C44.6,615.8 29.4,599.6 25.5,592.0C24.5,590.1 22.6,587.1 21.4,585.4C20.1,583.7 18.1,579.9 17.1,576.9C16.1,573.9 14.3,569.5 13.2,567.0C10.6,561.4 9.1,550.0 8.8,534.7C8.5,524.0 8.7,522.7 10.4,521.4C11.5,520.6 12.7,520.0 13.1,520.0C13.6,520.0 17.7,523.7 22.3,528.2C35.8,541.6 43.7,547.6 53.5,552.4C56.3,553.7 59.2,555.5 59.9,556.3C60.6,557.2 63.3,558.6 65.8,559.6C68.4,560.5 73.6,562.6 77.4,564.2C83.4,566.9 85.0,567.2 90.1,566.6L96.0,566.0L101.5,571.0C105.1,574.3 108.6,576.4 112.1,577.4C114.9,578.3 119.1,580.1 121.4,581.4C123.7,582.7 128.4,584.6 132.0,585.5C135.6,586.5 140.3,588.3 142.5,589.6C144.7,590.8 149.7,592.8 153.6,593.9C157.6,595.1 162.8,597.1 165.2,598.5C167.6,599.8 172.6,601.6 176.2,602.3C179.9,603.1 185.3,605.0 188.1,606.5C191.0,608.0 196.9,609.8 201.3,610.6C205.7,611.4 211.0,613.1 213.4,614.5C218.8,617.7 226.7,618.8 229.4,616.7C232.4,614.5 230.7,612.4 224.8,611.0C221.5,610.2 218.2,608.5 215.9,606.5C213.5,604.4 210.7,603.0 207.9,602.5C203.0,601.7 199.0,599.9 197.1,597.6C196.4,596.8 193.0,595.2 189.5,594.0C186.1,592.9 182.5,591.1 181.5,590.0C180.5,588.9 176.7,586.9 173.0,585.5C169.2,584.1 165.6,582.3 165.0,581.5C164.4,580.7 160.8,578.9 157.0,577.5C153.2,576.1 149.6,574.2 148.9,573.4C148.2,572.5 144.9,570.5 141.6,568.9C133.9,565.2 124.9,559.5 123.0,557.1C120.3,553.8 113.6,550.0 110.5,550.0C108.9,550.0 105.9,550.5 103.9,551.0C101.0,551.8 100.0,552.8 98.7,556.1C96.0,562.9 94.4,560.7 94.9,550.8C95.3,540.7 93.8,536.8 87.5,530.5C82.6,525.7 67.8,508.8 63.2,502.8C58.3,496.6 51.2,484.0 50.4,480.5C50.1,478.9 48.3,474.1 46.5,470.0C42.7,461.4 38.0,436.2 38.0,424.5C38.0,420.7 39.4,409.9 41.1,400.5C43.5,387.3 44.8,382.4 47.1,378.4C52.6,368.8 55.7,368.7 58.9,378.1C60.0,381.4 62.0,385.5 63.5,387.1C64.9,388.8 66.0,390.7 66.0,391.3C66.0,392.6 73.8,404.1 78.7,409.9C80.2,411.7 82.0,414.1 82.5,415.1C85.8,421.0 108.2,445.0 122.7,458.1C130.6,465.3 138.9,473.6 141.1,476.6C145.6,482.7 147.6,484.2 154.0,486.5C156.4,487.4 159.4,488.9 160.5,489.9C161.6,490.9 164.8,493.0 167.7,494.4C170.6,495.8 173.4,497.9 174.0,499.1C174.7,500.2 176.6,501.8 178.4,502.5C180.1,503.2 182.4,504.8 183.5,505.9C184.5,507.1 187.9,509.5 190.9,511.2C194.0,513.0 197.1,515.2 197.8,516.1C198.4,517.1 200.7,518.4 202.8,519.1C204.8,519.7 208.0,521.5 209.7,523.1C213.0,526.0 218.8,527.7 221.5,526.6C223.9,525.7 221.6,522.3 217.5,520.6C215.7,519.8 213.4,518.0 212.4,516.5C211.5,515.0 209.1,512.8 207.2,511.5C203.6,509.1 188.2,495.2 184.6,491.1C183.4,489.9 181.6,488.1 180.6,487.1C179.5,486.2 177.7,484.5 176.6,483.2C175.4,481.9 169.8,476.1 164.1,470.2C158.4,464.3 152.0,457.2 149.9,454.5C147.7,451.8 143.7,446.8 141.0,443.5C138.2,440.2 135.2,436.2 134.2,434.6C133.3,433.0 131.3,430.2 129.7,428.5C128.2,426.7 125.8,422.6 124.4,419.4C123.0,416.3 121.0,412.5 119.9,411.2C118.9,409.8 117.5,406.9 116.9,404.6C116.3,402.4 114.5,397.6 113.0,394.0C109.5,386.0 108.0,376.1 107.3,356.0C106.7,338.2 108.7,319.4 112.1,310.7C113.2,307.9 115.2,302.5 116.5,298.7C117.8,295.0 119.8,290.7 120.8,289.2C121.8,287.7 123.8,284.0 125.2,280.8C128.1,274.6 130.4,273.1 134.7,275.2C137.1,276.3 137.7,277.4 138.8,283.5C140.9,294.9 142.1,298.8 145.2,303.4C146.7,305.8 148.9,310.3 150.0,313.4C151.0,316.5 152.9,320.4 154.0,322.0C155.1,323.6 157.0,327.5 158.1,330.7C159.1,333.8 160.9,337.3 161.9,338.5C163.0,339.6 164.8,343.1 166.0,346.2C167.4,350.1 168.9,352.4 170.7,353.2C172.2,354.0 173.7,356.0 174.4,358.1C175.1,360.1 177.1,363.4 178.8,365.6C180.5,367.7 182.6,371.2 183.5,373.2C184.3,375.3 185.9,377.4 187.1,378.0C188.2,378.7 189.9,380.8 190.7,382.8C191.5,384.8 193.6,388.1 195.4,390.1C198.7,393.8 204.1,401.1 207.5,406.4C208.6,408.1 212.7,412.9 216.7,417.0C223.7,424.4 225.5,426.1 230.1,430.5C231.4,431.7 234.1,434.6 236.0,436.9C239.5,441.1 242.4,444.4 254.6,458.0C263.2,467.6 281.0,484.1 287.7,488.6C294.4,493.2 296.1,492.8 297.8,486.5C299.7,479.9 300.5,479.0 305.0,479.0C310.0,479.0 313.7,482.0 315.1,487.3C315.7,489.6 317.4,493.1 319.0,495.0C320.5,496.9 322.5,500.1 323.5,502.0C324.5,503.9 326.6,507.0 328.1,508.8C329.7,510.6 331.0,512.5 331.0,513.0C331.0,513.5 333.0,516.3 335.5,519.2C339.6,524.2 340.8,525.4 346.8,531.3C349.0,533.3 353.8,537.0 363.5,543.7C365.7,545.2 369.3,547.9 371.4,549.7C373.6,551.5 375.9,553.0 376.5,553.0C377.1,553.0 379.1,554.3 381.0,555.9C382.9,557.4 386.5,559.7 389.0,561.0C391.5,562.3 394.9,564.3 396.5,565.5C398.1,566.7 401.5,568.5 403.9,569.4C406.4,570.4 409.5,572.0 410.9,573.0C412.3,573.9 416.4,576.1 420.0,577.8C423.6,579.5 428.1,581.8 430.0,582.9C431.9,584.0 435.5,585.9 438.0,586.9C440.5,588.0 444.1,589.8 446.0,590.9C447.9,592.0 452.0,594.1 455.0,595.5C458.0,596.9 462.6,599.2 465.1,600.6C467.7,602.0 471.6,603.4 473.7,603.7L477.6,604.2L480.2,598.4C483.9,589.9 494.2,579.1 502.6,574.9L509.3,571.6L511.2,574.0C512.9,576.1 513.1,577.5 512.6,583.5C510.4,609.0 511.0,623.5 514.4,629.8C515.8,632.4 523.3,638.6 530.0,642.6C532.5,644.1 535.4,646.1 536.5,647.1C538.8,649.1 545.8,654.1 554.0,659.6C557.0,661.7 561.0,664.6 562.8,666.2C564.6,667.7 566.7,669.0 567.4,669.0C568.1,669.0 569.7,670.2 571.1,671.6C572.4,673.0 575.2,675.1 577.2,676.1C579.3,677.2 582.4,679.3 584.2,680.9C586.0,682.4 589.3,684.7 591.5,685.8C593.7,687.0 596.6,689.1 597.9,690.5C599.2,691.9 600.7,693.0 601.3,693.0C601.8,693.0 604.6,694.7 607.4,696.8C610.2,698.9 613.9,701.2 615.6,701.9C617.4,702.6 620.0,704.5 621.6,706.1C623.1,707.7 624.9,709.0 625.5,709.0C626.1,709.0 629.9,711.8 633.9,715.2C642.2,722.1 643.0,722.1 646.5,715.4C647.6,713.2 649.5,710.1 650.7,708.4C651.9,706.7 653.6,703.4 654.6,700.9C655.5,698.5 657.1,695.6 658.1,694.5C659.0,693.4 661.0,689.8 662.5,686.5C663.9,683.3 665.7,679.8 666.5,679.0C667.9,677.5 670.1,673.4 678.5,657.0C680.1,653.8 682.2,650.3 683.1,649.3C684.0,648.3 685.8,645.5 687.0,643.0C688.2,640.5 690.6,637.1 692.3,635.3C694.7,632.7 695.4,631.0 695.8,626.7L696.2,621.4L689.4,613.6C680.4,603.3 678.9,602.6 666.6,602.9C650.2,603.2 646.5,600.9 650.6,592.8C653.4,587.2 655.7,585.5 662.5,584.0C673.7,581.5 678.0,578.1 676.8,572.5C676.7,571.6 672.5,568.8 667.6,566.2C659.1,561.8 658.2,561.5 651.0,561.6C644.5,561.7 642.0,562.3 634.9,565.4C622.0,571.0 621.8,571.2 619.1,576.5C616.0,582.3 611.2,585.7 608.1,584.1C607.0,583.4 605.3,580.3 603.9,576.3C602.7,572.5 601.0,568.4 600.1,567.0C597.4,562.8 598.0,551.8 601.4,543.5C605.6,533.2 606.3,532.0 612.2,526.0C621.6,516.1 636.5,509.1 648.0,509.0C651.6,509.0 660.1,504.7 663.0,501.5C667.2,496.8 679.3,487.6 684.0,485.4C686.5,484.3 689.1,482.6 689.8,481.7C690.6,480.8 693.5,479.4 696.3,478.4C699.2,477.5 703.8,475.5 706.5,474.0C709.2,472.4 715.3,470.2 720.0,469.1C724.7,467.9 731.9,466.1 736.0,465.0C741.0,463.6 749.6,462.6 761.5,461.9C781.7,460.8 786.1,460.0 793.0,456.5C795.6,455.2 799.9,453.5 802.6,452.9C805.3,452.2 811.6,449.7 816.7,447.3C825.2,443.2 826.0,442.6 827.0,439.2C828.3,434.3 828.3,432.5 826.8,431.3C826.0,430.7 812.9,430.0 795.5,429.7C763.2,429.0 747.5,427.5 739.6,424.1C736.9,422.9 730.8,421.1 725.9,420.0C721.0,419.0 715.1,417.0 712.7,415.6C710.4,414.2 706.1,412.6 703.3,412.0C700.5,411.4 696.2,409.6 693.8,408.1C691.4,406.5 687.1,404.5 684.3,403.6C681.5,402.7 678.6,401.2 677.9,400.4C677.3,399.6 673.6,397.3 669.9,395.4C666.1,393.4 663.0,391.4 663.0,390.9C663.0,390.5 660.7,388.9 658.0,387.4C655.2,385.9 653.0,384.3 653.0,383.9C653.0,383.5 650.6,381.5 647.8,379.6C637.2,372.6 609.3,342.3 604.2,332.4C603.1,330.2 601.4,327.7 600.5,327.0C599.5,326.2 597.5,322.9 595.9,319.6C594.3,316.3 592.3,312.9 591.4,311.9C590.6,311.0 589.0,307.4 587.9,304.0C586.9,300.7 584.9,296.5 583.6,294.7C582.3,292.9 580.4,288.6 579.5,285.0C578.7,281.4 576.8,276.0 575.5,273.0C572.6,266.2 571.4,259.0 570.0,239.0C568.9,223.2 569.1,216.7 571.6,190.7C572.7,178.5 573.5,174.7 575.9,169.2C577.5,165.5 579.5,159.6 580.4,156.2C581.3,152.7 582.9,148.7 584.0,147.2C585.1,145.8 586.7,142.3 587.6,139.4C588.4,136.5 590.2,132.5 591.6,130.4C593.0,128.4 594.8,124.9 595.7,122.6C596.6,120.4 598.5,116.9 600.0,115.0C601.5,113.1 603.3,110.4 604.0,109.0C608.1,101.4 618.0,89.3 631.6,75.7C644.6,62.7 647.5,60.0 654.1,55.4C657.1,53.4 660.6,50.8 662.0,49.8C667.5,45.7 675.5,40.7 679.5,38.9C681.8,37.9 684.9,36.1 686.3,35.0C687.8,33.8 691.7,31.8 695.0,30.5C698.4,29.2 702.5,27.2 704.3,26.1C706.1,25.1 710.4,23.4 714.0,22.5C717.6,21.6 723.0,19.7 726.1,18.4C731.3,16.3 739.5,14.5 763.5,10.3C776.0,8.1 814.0,8.1 826.5,10.3C852.0,14.8 858.8,16.3 863.0,18.2C865.5,19.3 870.6,21.1 874.5,22.2C878.4,23.2 883.5,25.4 886.0,27.0C888.5,28.5 892.3,30.3 894.5,31.0C896.7,31.7 899.9,33.3 901.5,34.5C903.1,35.8 906.8,38.0 909.5,39.4C915.7,42.8 923.5,48.0 927.6,51.7C929.3,53.2 933.8,57.0 937.5,60.0C952.2,71.9 968.7,88.3 976.2,98.5C977.8,100.7 980.0,103.6 981.0,105.0C985.3,110.5 992.3,121.6 994.1,125.8C995.2,128.2 996.9,131.3 998.0,132.7C999.0,134.0 1000.6,137.7 1001.5,140.8C1002.5,143.9 1004.2,148.3 1005.5,150.5C1006.8,152.7 1008.6,157.2 1009.5,160.5C1010.4,163.8 1012.6,170.6 1014.3,175.5L1017.5,184.5L1017.5,217.5C1017.5,249.3 1017.4,250.8 1015.2,258.0C1013.9,262.1 1011.7,269.7 1010.4,274.9C1009.1,280.0 1006.8,286.8 1005.2,289.9C1003.6,293.0 1001.9,296.9 1001.6,298.7C1001.2,300.5 999.7,303.6 998.3,305.7C996.9,307.8 994.6,311.8 993.3,314.7C992.0,317.5 990.2,320.4 989.4,321.1C988.5,321.8 986.5,324.9 984.9,327.9C981.3,334.7 971.2,347.8 965.6,352.8C964.6,353.7 963.0,355.4 962.1,356.4C960.1,358.8 950.3,368.2 944.2,373.7C935.1,381.8 931.5,384.7 927.5,387.0C925.3,388.3 922.2,390.5 920.6,391.8C918.9,393.1 916.5,394.6 915.1,395.2C913.7,395.7 910.5,397.4 908.0,399.0C905.5,400.6 901.0,402.8 897.8,404.0C894.7,405.1 891.6,406.7 891.0,407.5C890.3,408.4 886.1,410.1 881.6,411.5C877.2,412.9 872.0,414.9 870.2,416.0C868.4,417.1 863.1,418.9 858.6,420.0C854.0,421.0 846.9,423.5 842.7,425.4C835.9,428.5 835.0,429.2 835.0,431.6C835.0,433.5 836.2,435.4 839.0,438.0C842.7,441.4 843.0,442.1 843.0,446.8C843.0,450.8 842.1,453.5 838.9,459.7C836.6,464.0 833.3,468.9 831.6,470.5C829.8,472.1 827.8,474.6 827.2,476.0C826.5,477.4 825.5,479.3 824.8,480.2C822.2,483.9 825.0,484.5 842.3,484.2C851.2,484.0 861.6,483.5 865.4,483.0C873.4,482.0 874.3,482.3 875.9,485.6C877.7,489.7 877.2,490.9 872.0,494.1C869.2,495.8 867.0,497.7 867.0,498.4C867.0,499.9 869.7,502.4 872.1,503.3C874.9,504.2 905.2,502.1 910.5,500.6C919.9,497.9 932.5,492.9 935.5,490.6C946.3,482.6 953.3,481.0 957.0,485.7C959.0,488.3 959.1,489.2 958.5,497.0C957.7,506.9 953.5,516.8 948.5,520.3C946.9,521.4 944.5,523.3 943.3,524.5C942.1,525.6 938.9,527.2 936.1,527.9C930.5,529.3 926.4,532.6 925.4,536.5C924.1,541.9 928.2,542.6 938.7,538.7C945.6,536.1 947.8,535.7 953.8,535.9C956.2,536.0 957.3,536.6 958.2,538.4C959.1,540.5 958.8,541.6 956.2,545.7C953.7,549.6 951.6,551.3 945.1,554.7C940.6,557.1 933.5,559.9 929.3,561.0C921.3,563.0 907.3,568.7 904.5,571.0C903.7,571.7 903.0,572.8 903.0,573.5C903.0,576.4 906.2,577.4 915.5,577.5C928.9,577.7 931.2,580.4 924.4,588.0C920.1,592.7 914.3,594.8 902.7,595.7C895.5,596.3 891.2,598.0 892.4,599.8C892.6,600.2 893.3,602.4 893.9,604.7C894.5,607.0 896.1,610.2 897.4,611.7C898.7,613.2 900.0,616.2 900.3,618.4C900.8,621.7 900.5,622.6 898.0,625.1C896.4,626.7 894.5,628.0 893.7,628.0C892.9,628.0 891.5,628.9 890.6,629.9C889.2,631.5 889.0,632.4 889.9,635.2C891.7,641.4 895.5,649.5 898.2,653.0C899.6,654.9 901.5,658.3 902.4,660.5C903.4,662.7 905.0,665.4 906.0,666.5C907.0,667.6 908.9,670.8 910.1,673.5C911.3,676.3 912.9,679.3 913.8,680.2C915.4,682.1 920.5,691.7 926.9,704.7C929.8,710.7 931.8,713.5 934.2,715.0C938.6,717.6 939.4,717.5 943.3,713.9C945.0,712.2 947.9,710.1 949.5,709.3C951.1,708.4 953.4,706.9 954.5,705.9C955.6,704.9 958.8,703.1 961.5,701.9C964.3,700.7 968.0,698.4 969.8,696.9C971.6,695.3 973.7,694.0 974.5,694.0C975.2,694.0 977.9,692.4 980.4,690.5C982.9,688.6 986.6,686.2 988.8,685.1C990.9,684.0 993.3,682.4 994.0,681.5C994.8,680.6 997.9,678.6 1001.0,677.0C1004.1,675.4 1007.2,673.4 1008.0,672.5C1008.7,671.6 1011.2,669.9 1013.4,668.8C1015.7,667.7 1018.9,665.6 1020.6,664.1C1022.3,662.7 1025.7,660.3 1028.1,658.7C1036.9,653.2 1041.2,650.0 1056.7,637.5C1061.8,633.4 1066.5,629.0 1067.2,627.8C1067.8,626.5 1068.7,623.0 1069.0,620.0C1069.9,612.5 1068.3,591.7 1066.5,587.3C1064.3,582.2 1064.6,579.7 1067.8,576.7C1071.2,573.5 1071.5,573.5 1077.1,575.9C1084.0,579.0 1090.2,586.2 1096.2,598.0C1101.1,607.7 1101.7,608.5 1104.7,608.8C1106.9,609.0 1108.2,608.5 1109.2,607.1C1110.0,606.0 1112.9,604.1 1115.6,602.9C1118.3,601.7 1121.8,599.8 1123.5,598.6C1125.1,597.5 1129.2,595.1 1132.5,593.4C1145.4,586.8 1152.3,582.9 1155.3,580.6C1157.1,579.3 1160.3,577.5 1162.5,576.6C1164.7,575.6 1167.4,574.1 1168.5,573.0C1169.6,572.0 1172.6,570.2 1175.2,569.1C1177.7,568.1 1181.7,565.8 1184.1,564.1C1186.4,562.4 1188.8,561.0 1189.4,561.0C1190.0,561.0 1192.9,559.2 1195.8,557.0C1198.7,554.8 1201.5,553.0 1202.0,553.0C1202.6,553.0 1204.7,551.5 1206.7,549.6C1208.8,547.8 1212.3,545.3 1214.6,544.2C1216.8,543.1 1219.2,541.4 1220.0,540.5C1220.8,539.6 1223.2,537.9 1225.4,536.8C1229.8,534.6 1235.1,530.2 1244.0,521.5C1251.3,514.4 1255.9,508.5 1258.2,503.1C1259.2,500.7 1261.1,497.4 1262.5,495.8C1263.8,494.2 1265.4,491.1 1266.0,488.9C1268.0,481.8 1269.1,480.1 1273.5,478.4C1280.1,475.9 1282.0,477.4 1283.4,486.1C1284.5,492.2 1286.3,492.8 1291.2,488.6C1296.6,484.1 1297.9,482.8 1300.7,479.9C1301.9,478.6 1306.7,473.9 1311.5,469.5C1318.6,463.0 1338.2,444.3 1347.5,435.2C1348.6,434.2 1351.4,431.1 1353.8,428.4C1356.1,425.7 1359.7,421.6 1361.8,419.2C1363.8,416.9 1368.7,411.7 1372.5,407.7C1376.4,403.8 1380.6,398.8 1382.0,396.8C1383.4,394.7 1384.8,393.0 1385.2,393.0C1385.6,393.0 1387.4,390.4 1389.3,387.3C1392.5,381.7 1395.2,378.4 1402.4,371.0C1404.2,369.1 1406.3,366.4 1407.0,365.1C1407.7,363.8 1409.7,360.8 1411.5,358.4C1413.3,356.0 1415.3,352.5 1416.0,350.5C1416.6,348.6 1418.0,346.5 1419.1,345.9C1420.2,345.4 1422.1,342.6 1423.4,339.7C1424.7,336.8 1426.9,333.0 1428.4,331.1C1429.8,329.2 1431.6,325.3 1432.5,322.4C1433.3,319.4 1434.9,315.6 1435.9,313.8C1436.9,312.0 1438.5,308.0 1439.5,305.0C1440.4,302.0 1442.5,296.8 1444.1,293.5C1445.6,290.2 1447.4,284.4 1448.0,280.5C1448.6,276.7 1449.6,273.0 1450.2,272.3C1451.6,270.6 1454.4,270.7 1458.0,272.5C1460.8,273.9 1462.0,276.5 1465.1,286.5C1465.8,288.7 1467.6,293.0 1469.1,296.0C1473.6,304.8 1477.5,327.4 1477.3,343.5C1477.2,360.0 1472.4,389.4 1468.7,396.7C1467.3,399.4 1465.7,403.5 1465.0,406.0C1464.3,408.4 1462.1,413.3 1459.9,416.9C1457.8,420.5 1456.0,423.9 1456.0,424.6C1456.0,425.3 1454.9,427.1 1453.7,428.7C1452.4,430.2 1450.0,433.8 1448.5,436.5C1443.3,445.5 1432.6,457.7 1406.2,484.5C1394.0,496.9 1387.3,503.0 1386.0,503.0C1385.5,503.0 1383.1,504.8 1380.8,507.0C1378.4,509.2 1374.6,512.7 1372.2,514.7C1369.8,516.8 1365.1,521.3 1361.6,524.8C1358.1,528.2 1354.7,531.0 1354.1,531.0C1353.5,531.0 1353.0,531.7 1353.0,532.5C1353.0,533.6 1354.1,534.0 1356.6,534.0C1359.3,534.0 1360.8,533.3 1362.8,531.0C1364.3,529.4 1366.4,528.0 1367.6,528.0C1368.7,528.0 1371.2,526.9 1373.1,525.5C1375.0,524.2 1379.2,521.6 1382.5,519.9C1385.8,518.2 1390.0,515.4 1391.8,513.9C1393.6,512.3 1395.7,511.0 1396.5,511.0C1397.2,511.0 1399.8,509.5 1402.3,507.6C1404.7,505.7 1407.8,503.7 1409.1,503.0C1411.4,501.8 1415.3,498.4 1421.0,492.7C1423.4,490.3 1429.5,482.8 1432.3,478.7C1433.0,477.6 1435.9,476.2 1438.6,475.5C1443.9,474.1 1455.0,467.6 1455.0,465.9C1455.0,465.4 1458.5,461.2 1462.9,456.7C1486.7,431.8 1497.5,420.1 1499.7,416.8C1501.1,414.7 1502.6,413.0 1503.1,413.0C1503.6,413.0 1504.7,411.5 1505.6,409.8C1506.5,408.0 1508.6,404.9 1510.2,403.0C1515.1,397.2 1521.5,386.8 1523.4,381.6C1526.0,374.9 1530.4,370.0 1534.1,370.0C1537.4,370.0 1538.3,371.4 1539.9,379.8C1540.5,382.7 1541.9,386.8 1543.0,388.9C1545.6,394.2 1546.9,402.7 1547.6,421.5C1548.5,442.7 1547.2,452.8 1541.9,466.2C1539.7,471.9 1537.2,477.9 1536.4,479.5C1532.6,487.1 1521.5,504.3 1516.4,510.5C1497.0,534.1 1481.3,549.1 1472.3,553.0C1469.5,554.2 1466.2,556.3 1464.9,557.6C1463.7,558.9 1460.8,560.5 1458.6,561.1C1456.3,561.7 1452.5,563.4 1450.0,565.0C1447.5,566.5 1443.8,568.3 1441.8,568.9C1439.8,569.6 1436.4,571.5 1434.3,573.1C1432.2,574.8 1429.0,576.8 1427.2,577.6C1425.3,578.3 1422.5,580.1 1420.9,581.4C1419.4,582.7 1415.7,584.6 1412.8,585.6C1409.9,586.5 1405.9,588.4 1404.0,589.7C1402.1,591.0 1398.1,592.8 1395.3,593.6C1392.4,594.4 1388.3,596.6 1386.1,598.4C1383.9,600.2 1380.1,602.3 1377.6,603.0C1372.5,604.4 1370.5,606.2 1371.4,608.6C1372.5,611.5 1386.0,610.0 1393.5,606.3C1396.8,604.7 1402.2,602.8 1405.5,602.1C1408.8,601.4 1413.8,599.6 1416.5,598.0C1419.2,596.5 1423.7,594.7 1426.4,594.1C1429.0,593.4 1433.9,591.6 1437.1,589.9C1440.3,588.3 1445.3,586.5 1448.2,585.9C1451.1,585.3 1456.0,583.5 1459.0,581.9C1462.0,580.2 1467.2,578.2 1470.5,577.4C1473.8,576.6 1478.3,574.6 1480.5,573.1C1488.4,567.5 1500.4,562.0 1506.9,561.0C1511.0,560.4 1514.9,559.0 1518.0,557.0C1520.6,555.4 1525.0,553.3 1527.7,552.5C1530.5,551.7 1533.9,550.1 1535.4,548.9C1536.9,547.7 1540.7,545.5 1544.0,543.9C1547.2,542.4 1550.1,540.6 1550.5,540.0C1550.8,539.5 1553.0,538.0 1555.3,536.9C1559.5,534.7 1565.8,529.8 1571.6,524.0C1575.4,520.2 1579.6,519.9 1581.2,523.5C1584.2,530.1 1575.0,569.6 1568.1,579.5C1566.5,581.7 1564.5,585.1 1563.5,587.0C1560.3,593.3 1549.0,605.6 1538.3,614.3C1535.1,616.9 1530.7,620.6 1528.5,622.5C1517.9,631.8 1514.8,634.0 1512.2,634.0C1507.1,634.0 1498.7,636.9 1495.9,639.6C1494.0,641.4 1491.4,642.5 1487.9,643.1C1485.1,643.5 1480.1,645.3 1476.8,647.0C1473.6,648.7 1467.9,651.0 1464.2,652.2C1460.5,653.3 1455.7,655.2 1453.5,656.5C1451.3,657.7 1446.1,659.6 1442.0,660.5C1437.9,661.5 1432.0,663.3 1429.0,664.5C1426.0,665.8 1419.0,667.7 1413.5,668.8C1408.0,669.9 1401.0,671.8 1398.1,673.0C1395.1,674.1 1388.3,675.8 1383.0,676.5C1377.7,677.3 1370.6,679.1 1367.1,680.5C1363.7,681.9 1356.6,683.7 1351.3,684.4C1341.6,685.7 1338.2,687.5 1339.3,690.4C1340.3,693.0 1344.5,694.0 1353.9,694.0C1365.8,694.0 1381.7,692.4 1398.5,689.5C1406.2,688.1 1422.0,686.1 1433.5,685.0C1445.0,683.9 1459.0,682.1 1464.5,681.0C1477.3,678.5 1492.4,676.3 1502.4,675.5C1506.7,675.1 1513.0,673.8 1516.4,672.5C1519.8,671.3 1527.1,669.3 1532.7,668.2C1543.3,666.0 1563.1,658.8 1565.1,656.4C1566.5,654.7 1569.4,654.6 1570.8,656.2C1572.5,658.4 1573.1,663.5 1572.0,666.4C1571.5,667.9 1569.7,670.8 1568.1,672.8C1566.6,674.8 1564.7,678.1 1564.0,680.0C1563.3,681.9 1561.6,684.9 1560.4,686.6C1559.1,688.4 1557.0,692.2 1555.7,695.1C1554.4,698.1 1552.1,701.6 1550.6,702.9C1549.2,704.3 1548.0,706.3 1548.0,707.6C1548.0,709.5 1548.6,709.8 1554.0,710.2C1563.8,710.9 1563.4,709.5 1564.0,743.0C1564.6,776.0 1564.3,775.0 1572.9,775.6C1583.4,776.3 1587.0,782.0 1587.0,797.9C1587.0,810.4 1585.9,812.0 1575.9,815.0C1571.4,816.4 1568.5,817.8 1567.6,819.3C1566.7,820.8 1565.9,828.2 1565.1,843.3C1563.8,868.9 1563.0,871.8 1556.7,874.8C1554.4,875.9 1551.8,877.6 1550.9,878.6C1548.8,881.0 1547.0,886.5 1547.0,890.3C1547.0,891.9 1545.4,901.5 1543.3,911.6C1539.1,933.0 1539.1,933.4 1547.3,938.0C1556.4,943.1 1556.5,943.3 1555.1,955.2C1553.6,968.6 1552.0,971.7 1544.9,975.2C1537.1,979.0 1533.5,984.8 1531.4,996.6C1530.4,1002.2 1529.0,1006.8 1527.5,1009.1C1526.2,1011.1 1524.2,1015.6 1523.1,1019.0C1521.9,1022.5 1519.9,1027.2 1518.6,1029.4C1517.3,1031.7 1515.2,1036.4 1514.0,1039.9C1512.8,1043.4 1510.8,1047.7 1509.6,1049.4C1508.3,1051.1 1506.7,1054.2 1506.1,1056.2C1505.4,1058.2 1503.7,1061.6 1502.3,1063.7C1500.9,1065.8 1498.7,1070.1 1497.4,1073.3C1496.1,1076.5 1494.0,1080.4 1492.6,1082.1C1491.2,1083.8 1490.0,1085.7 1490.0,1086.4C1490.0,1087.1 1488.0,1090.8 1485.5,1094.6C1483.0,1098.3 1481.0,1101.8 1481.0,1102.4C1481.0,1102.9 1479.9,1104.7 1478.6,1106.5C1477.2,1108.3 1474.9,1111.9 1473.4,1114.6C1470.2,1120.3 1465.0,1128.3 1461.8,1132.4C1460.5,1134.1 1458.2,1137.5 1456.5,1140.1C1450.7,1149.1 1443.9,1158.0 1433.2,1170.5C1427.0,1177.9 1426.0,1179.6 1426.0,1182.9C1426.0,1185.4 1426.7,1187.3 1428.0,1188.5C1430.7,1191.0 1436.0,1200.8 1436.0,1203.4C1435.9,1208.1 1432.0,1213.8 1423.1,1222.0C1418.0,1226.7 1413.1,1230.8 1412.3,1231.1C1409.5,1232.1 1406.2,1230.9 1402.1,1227.4C1397.0,1223.0 1392.9,1222.9 1388.6,1226.9C1386.9,1228.5 1381.2,1233.8 1376.0,1238.7C1370.8,1243.6 1364.2,1249.6 1361.4,1252.0C1338.1,1272.6 1337.1,1274.1 1340.9,1282.9C1344.1,1290.5 1343.8,1294.6 1339.3,1298.7C1337.3,1300.7 1333.8,1303.4 1331.6,1304.8C1326.9,1307.8 1319.9,1313.5 1315.3,1318.1C1312.8,1320.6 1311.1,1321.4 1307.2,1321.8C1302.9,1322.2 1301.9,1321.9 1300.3,1319.9C1299.3,1318.7 1296.9,1315.9 1295.0,1313.8C1293.1,1311.8 1290.7,1309.1 1289.8,1308.0C1288.8,1306.9 1286.9,1306.0 1285.5,1306.0C1281.8,1306.0 1276.3,1308.5 1275.1,1310.8C1274.5,1311.9 1272.5,1313.5 1270.6,1314.4C1268.7,1315.3 1265.8,1317.2 1264.2,1318.5C1262.6,1319.9 1259.1,1321.9 1256.5,1323.0C1253.9,1324.1 1250.5,1325.9 1249.0,1327.0C1247.5,1328.0 1243.8,1329.8 1240.7,1331.0C1237.6,1332.2 1234.5,1334.1 1233.6,1335.5C1232.6,1337.0 1230.1,1338.4 1226.7,1339.4C1223.7,1340.3 1220.1,1341.9 1218.6,1343.1C1217.1,1344.3 1213.2,1346.0 1209.9,1347.0C1206.6,1348.0 1202.3,1350.0 1200.4,1351.5C1198.5,1352.9 1194.8,1354.8 1192.0,1355.6C1189.3,1356.4 1185.8,1358.1 1184.2,1359.5C1182.6,1360.8 1178.2,1362.8 1174.4,1363.8C1170.6,1364.9 1165.9,1366.7 1164.0,1367.8C1162.1,1369.0 1156.2,1370.9 1151.0,1372.0C1145.8,1373.2 1140.6,1374.4 1139.5,1374.7C1136.5,1375.3 1128.1,1371.2 1126.8,1368.5C1125.6,1365.8 1126.5,1359.7 1128.4,1358.1C1129.1,1357.5 1131.6,1356.3 1134.0,1355.5C1136.4,1354.7 1139.7,1352.9 1141.4,1351.6C1143.1,1350.4 1146.9,1348.5 1149.8,1347.6C1152.7,1346.6 1156.4,1344.7 1158.0,1343.3C1159.7,1341.9 1163.4,1339.9 1166.3,1338.8C1169.1,1337.7 1172.4,1336.0 1173.5,1334.9C1174.7,1333.9 1178.2,1332.1 1181.3,1331.1C1184.4,1330.0 1188.5,1328.0 1190.2,1326.7C1192.0,1325.4 1195.8,1323.5 1198.5,1322.5C1201.2,1321.5 1204.8,1319.7 1206.5,1318.5C1208.2,1317.3 1211.5,1315.4 1214.0,1314.3C1216.5,1313.2 1220.2,1310.9 1222.4,1309.1C1224.5,1307.4 1226.9,1306.0 1227.7,1306.0C1228.4,1306.0 1230.7,1304.5 1232.8,1302.6C1244.0,1292.3 1254.0,1284.0 1258.0,1281.5C1260.5,1280.0 1264.2,1277.3 1266.2,1275.6C1273.8,1269.2 1290.6,1256.8 1294.5,1254.8C1295.5,1254.2 1297.8,1252.3 1299.6,1250.6C1301.4,1248.9 1307.2,1243.9 1312.5,1239.5C1333.9,1221.9 1359.2,1197.3 1370.3,1183.5C1376.3,1176.0 1381.6,1169.9 1385.6,1165.7C1387.3,1163.9 1389.4,1161.1 1390.3,1159.4C1391.2,1157.7 1392.6,1155.8 1393.5,1155.0C1394.4,1154.3 1396.7,1150.8 1398.6,1147.3C1400.6,1143.9 1402.7,1140.7 1403.3,1140.3C1404.0,1139.8 1405.8,1137.6 1407.3,1135.2C1408.8,1132.9 1410.5,1131.0 1411.0,1131.0C1411.5,1131.0 1413.1,1128.8 1414.4,1126.1C1415.8,1123.5 1418.0,1120.0 1419.3,1118.4C1420.6,1116.8 1422.6,1113.7 1423.8,1111.5C1424.9,1109.3 1426.8,1106.6 1428.0,1105.5C1429.2,1104.4 1430.8,1102.0 1431.6,1100.0C1432.4,1098.1 1434.2,1095.4 1435.4,1094.0C1436.7,1092.6 1438.7,1089.7 1439.8,1087.4C1440.9,1085.2 1442.6,1082.7 1443.5,1082.0C1444.4,1081.2 1446.3,1078.3 1447.7,1075.6C1449.1,1072.8 1451.6,1068.9 1453.1,1067.0C1454.7,1065.1 1456.0,1063.0 1456.0,1062.4C1456.0,1061.7 1457.6,1058.9 1459.5,1056.1C1461.4,1053.3 1463.9,1048.6 1465.0,1045.6C1466.2,1042.6 1467.7,1039.7 1468.5,1039.0C1469.3,1038.3 1470.9,1035.3 1472.0,1032.2C1473.2,1029.0 1475.2,1024.9 1476.5,1022.9C1477.8,1020.8 1479.6,1016.8 1480.5,1013.9C1481.4,1010.9 1483.4,1005.8 1485.0,1002.5C1486.6,999.2 1488.4,994.5 1489.0,992.0C1489.7,989.5 1491.7,984.4 1493.6,980.6C1495.5,976.7 1497.0,972.7 1497.0,971.6C1497.0,970.4 1495.6,967.5 1494.0,965.1C1489.6,958.6 1489.9,954.1 1495.5,943.0L1500.0,934.1L1506.5,932.2C1514.7,929.7 1520.8,925.0 1521.4,920.7C1521.7,918.9 1522.6,911.9 1523.5,905.0C1524.4,898.1 1525.8,890.7 1526.7,888.5C1529.8,880.0 1530.0,878.6 1528.9,874.7C1528.2,872.0 1527.0,870.3 1524.8,869.2C1516.2,864.4 1515.9,863.7 1518.6,849.0C1519.5,843.6 1520.0,835.3 1519.9,826.4C1519.8,814.5 1520.0,811.9 1521.5,809.7C1523.9,805.9 1527.2,805.3 1531.3,807.9C1535.7,810.6 1544.0,810.8 1546.2,808.2C1550.1,803.9 1551.3,788.1 1548.4,777.9C1546.5,771.2 1544.9,769.4 1539.8,768.5C1535.6,767.7 1536.6,767.0 1518.7,784.5C1508.3,794.7 1503.2,798.7 1497.8,801.2C1495.7,802.1 1492.5,804.0 1490.7,805.3C1489.0,806.7 1484.8,808.5 1481.5,809.4C1478.2,810.3 1473.0,812.2 1470.0,813.5C1467.0,814.8 1460.5,816.6 1455.5,817.5C1450.5,818.4 1442.9,820.0 1438.5,821.1C1423.0,824.9 1399.0,824.7 1363.5,820.6C1356.3,819.8 1342.1,818.4 1331.8,817.5C1319.0,816.4 1310.5,815.2 1304.8,813.5C1296.9,811.2 1282.5,809.0 1275.4,809.0C1273.6,809.0 1271.2,809.9 1269.9,810.9C1267.8,812.7 1267.7,813.0 1269.0,814.4C1269.8,815.2 1274.0,816.6 1278.2,817.4C1282.5,818.2 1287.9,820.1 1290.4,821.5C1293.1,823.1 1298.7,824.8 1304.9,826.0C1310.4,827.0 1317.1,828.9 1319.7,830.0C1322.4,831.2 1329.0,832.8 1334.5,833.6C1340.0,834.5 1348.8,836.5 1354.0,838.1C1359.2,839.7 1368.0,841.7 1373.5,842.5C1378.9,843.4 1387.2,845.2 1392.0,846.6C1396.7,847.9 1408.2,849.9 1417.5,851.0C1426.8,852.1 1437.7,853.9 1441.5,855.0C1445.3,856.1 1451.8,857.4 1455.9,857.9C1464.1,858.9 1466.6,860.6 1465.6,864.2C1465.0,866.5 1456.4,873.1 1452.3,874.4C1451.0,874.8 1448.3,876.6 1446.1,878.4C1444.0,880.2 1440.7,882.2 1438.9,882.9C1437.0,883.6 1433.2,885.1 1430.5,886.2C1421.3,889.9 1416.6,890.9 1402.4,891.9C1374.0,894.1 1344.6,892.6 1330.5,888.4C1326.1,887.0 1317.4,885.0 1311.3,883.9C1305.1,882.8 1296.8,880.7 1292.8,879.1C1288.8,877.5 1282.1,875.7 1278.0,875.0C1273.8,874.4 1267.8,872.6 1264.5,871.0C1261.2,869.4 1255.2,867.6 1251.0,867.0C1246.2,866.2 1242.2,865.0 1240.0,863.4C1235.4,860.3 1221.9,858.0 1219.6,860.0C1216.0,862.9 1218.0,864.9 1226.6,866.9C1229.6,867.6 1232.8,869.2 1234.1,870.6C1235.4,872.0 1239.3,873.9 1243.4,875.1C1247.3,876.3 1252.3,878.5 1254.5,880.0C1256.7,881.6 1261.1,883.6 1264.4,884.5C1267.6,885.4 1271.9,887.2 1273.9,888.5C1275.9,889.8 1279.8,891.4 1282.5,892.1C1285.2,892.7 1289.8,894.5 1292.5,896.0C1295.2,897.6 1300.4,899.6 1304.0,900.5C1307.6,901.4 1312.4,903.2 1314.7,904.6C1317.0,905.9 1321.9,907.7 1325.7,908.6C1329.4,909.4 1335.2,911.4 1338.5,913.0C1341.8,914.6 1348.3,917.0 1353.0,918.3C1366.1,922.1 1375.3,925.7 1376.7,927.6C1377.8,929.0 1377.7,929.7 1376.7,931.4C1375.1,933.7 1366.6,938.3 1359.5,940.6C1356.8,941.5 1351.8,943.5 1348.5,945.1C1340.4,948.9 1332.5,950.0 1312.5,950.0C1292.3,950.0 1280.0,948.7 1270.5,945.4C1266.7,944.1 1260.0,942.4 1255.7,941.5C1251.3,940.7 1245.3,938.9 1242.2,937.4C1239.0,936.0 1234.3,934.1 1231.6,933.3C1228.9,932.5 1224.4,930.5 1221.6,928.9C1218.8,927.4 1214.6,925.4 1212.3,924.6C1210.1,923.8 1206.5,922.0 1204.3,920.6C1202.2,919.2 1198.9,917.5 1197.0,916.9C1195.1,916.2 1191.9,914.4 1190.0,912.9C1188.1,911.3 1184.3,909.1 1181.5,907.9C1178.8,906.7 1175.7,904.6 1174.7,903.3C1172.1,900.1 1168.6,900.5 1168.2,904.2C1167.9,906.3 1168.5,907.2 1170.8,908.4C1172.4,909.2 1174.3,911.2 1174.9,912.9C1175.6,914.5 1177.5,916.4 1179.0,917.0C1180.6,917.7 1182.6,919.3 1183.5,920.6C1184.3,921.9 1186.5,923.7 1188.3,924.6C1190.0,925.5 1193.3,927.7 1195.5,929.5C1197.7,931.2 1200.9,933.2 1202.7,933.9C1204.4,934.6 1206.8,936.3 1208.1,937.6C1209.4,939.0 1212.3,940.9 1214.5,941.9C1216.7,942.9 1220.2,945.1 1222.3,946.8C1224.4,948.5 1227.1,950.2 1228.2,950.6C1229.4,950.9 1232.3,952.7 1234.7,954.6C1237.2,956.5 1239.8,958.0 1240.5,958.0C1241.2,958.0 1243.8,959.5 1246.3,961.4C1248.7,963.3 1251.8,965.3 1253.1,966.0C1254.4,966.7 1257.0,968.4 1258.9,969.9C1260.8,971.3 1267.5,975.2 1273.8,978.5C1287.0,985.4 1288.7,987.1 1285.0,990.0C1283.6,991.1 1280.9,992.2 1279.0,992.6C1277.1,992.9 1271.5,994.4 1266.5,995.8C1258.3,998.3 1256.0,998.5 1241.0,998.5C1226.4,998.5 1223.6,998.2 1217.0,996.1C1212.9,994.8 1206.0,992.9 1201.8,991.9C1197.6,990.9 1191.2,988.5 1187.5,986.5C1183.8,984.6 1180.3,983.0 1179.6,983.0C1178.9,983.0 1176.5,981.7 1174.3,980.1C1172.1,978.5 1168.3,976.2 1165.9,975.0C1163.5,973.8 1160.6,972.0 1159.5,971.0C1158.4,970.0 1155.8,968.3 1153.7,967.1C1147.7,963.8 1132.0,951.6 1126.2,945.9C1124.1,943.9 1121.6,941.9 1120.4,941.6C1119.3,941.3 1117.4,939.6 1116.2,938.0C1113.7,934.7 1111.9,934.2 1110.0,936.5C1108.3,938.6 1111.0,945.7 1115.0,949.5C1116.7,951.1 1118.0,952.7 1118.0,953.2C1118.0,954.0 1132.2,969.3 1136.8,973.4C1138.1,974.6 1144.3,980.6 1150.6,986.7C1167.2,1003.2 1187.0,1020.5 1194.2,1024.9C1198.7,1027.6 1199.1,1030.2 1195.5,1032.6C1193.3,1034.0 1190.5,1034.2 1173.2,1033.7C1151.6,1033.2 1144.0,1032.1 1136.7,1028.4C1134.0,1027.1 1129.5,1025.3 1126.5,1024.5C1123.6,1023.6 1120.1,1022.1 1118.8,1021.1C1117.5,1020.1 1114.6,1018.2 1112.2,1016.8C1103.1,1011.7 1086.7,997.5 1067.9,978.4C1061.8,972.2 1057.0,976.4 1062.3,983.3C1063.6,985.1 1065.9,988.8 1067.3,991.5C1068.6,994.2 1070.8,997.4 1072.0,998.5C1073.2,999.6 1074.9,1001.8 1075.7,1003.5C1076.6,1005.1 1078.6,1007.8 1080.2,1009.5C1085.4,1014.8 1100.4,1032.5 1104.2,1037.9C1111.5,1048.0 1109.4,1049.5 1089.1,1048.5C1081.1,1048.1 1072.7,1047.2 1070.5,1046.5C1058.0,1042.4 1041.3,1033.4 1034.7,1027.1C1024.4,1017.3 1019.0,1011.7 1019.0,1010.9C1019.0,1010.3 1016.8,1007.5 1014.2,1004.7C1011.6,1001.8 1008.6,998.2 1007.6,996.7C1006.2,994.4 1005.6,994.1 1004.4,995.1C1002.2,996.9 1002.6,1004.2 1005.3,1008.1C1006.5,1010.0 1008.5,1013.9 1009.7,1016.8C1012.0,1022.3 1016.1,1027.9 1022.2,1033.9C1024.9,1036.5 1026.1,1038.7 1026.6,1041.7C1027.5,1047.3 1025.3,1048.4 1014.9,1047.7C1003.2,1046.9 989.1,1040.2 979.2,1030.8C974.8,1026.6 969.3,1019.9 967.8,1017.1C966.5,1014.7 965.4,1013.9 963.8,1014.2C959.8,1014.7 959.0,1018.3 959.6,1032.0C960.3,1045.4 959.2,1057.9 956.0,1075.0C954.9,1080.8 952.9,1096.3 951.5,1109.5C950.2,1122.7 948.3,1139.3 947.5,1146.5C946.6,1153.6 946.1,1160.4 946.4,1161.5C946.7,1162.7 948.6,1164.5 950.7,1165.5C954.0,1167.2 958.2,1167.6 985.0,1168.5C1014.4,1169.5 1015.7,1169.6 1020.5,1172.0C1024.1,1173.8 1025.6,1175.3 1026.3,1177.5C1026.8,1179.2 1028.7,1183.9 1030.6,1188.0C1032.4,1192.1 1034.4,1197.4 1035.0,1199.7C1035.6,1202.0 1037.1,1205.2 1038.4,1206.7C1039.7,1208.2 1041.7,1211.7 1042.9,1214.4C1047.3,1224.4 1058.0,1234.8 1077.0,1247.6C1080.0,1249.7 1082.9,1251.9 1083.3,1252.7C1083.7,1253.4 1086.0,1255.0 1088.3,1256.1C1090.6,1257.3 1094.0,1259.5 1096.0,1261.0C1097.9,1262.5 1101.1,1264.3 1103.0,1265.1C1104.9,1265.8 1108.2,1267.6 1110.3,1269.2C1112.4,1270.7 1115.8,1272.4 1117.8,1273.1C1119.8,1273.7 1123.6,1275.6 1126.2,1277.2C1128.8,1278.8 1132.6,1280.6 1134.7,1281.2C1136.8,1281.7 1140.5,1283.4 1143.0,1285.0C1145.5,1286.5 1150.6,1288.8 1154.3,1290.0C1169.2,1294.8 1186.4,1306.0 1185.8,1310.4C1185.6,1312.0 1184.1,1312.9 1179.5,1314.3C1176.2,1315.3 1170.1,1317.2 1166.0,1318.5C1146.1,1325.0 1116.3,1324.5 1099.1,1317.3C1077.9,1308.6 1070.8,1303.8 1051.8,1285.5C1049.2,1283.0 1046.2,1281.0 1045.1,1281.0C1043.9,1281.0 1042.6,1279.9 1041.8,1278.3C1040.3,1275.0 1037.3,1274.1 1036.3,1276.6C1035.9,1277.8 1036.5,1279.0 1038.2,1280.4C1039.6,1281.6 1041.3,1284.2 1042.0,1286.3C1042.6,1288.4 1044.7,1292.1 1046.5,1294.5C1048.4,1296.9 1050.6,1300.2 1051.4,1301.9C1052.3,1303.5 1053.8,1305.5 1054.9,1306.2C1055.9,1306.9 1057.6,1308.9 1058.6,1310.6C1059.7,1312.3 1062.3,1315.8 1064.5,1318.4C1066.7,1321.0 1070.4,1325.5 1072.8,1328.3C1075.1,1331.2 1078.6,1335.3 1080.5,1337.5C1082.3,1339.7 1085.9,1344.0 1088.4,1347.0C1090.9,1350.0 1094.3,1354.1 1095.9,1356.0C1097.6,1357.9 1101.2,1362.1 1104.0,1365.3C1106.7,1368.4 1109.0,1371.4 1109.0,1371.8C1109.0,1372.2 1111.5,1375.1 1114.5,1378.2C1117.5,1381.3 1120.0,1384.6 1120.0,1385.5C1120.0,1386.4 1118.6,1388.5 1117.0,1390.0C1113.1,1393.6 1102.8,1395.5 1092.0,1394.6C1081.3,1393.7 1059.3,1388.3 1054.0,1385.2C1051.5,1383.7 1047.5,1381.6 1045.0,1380.4C1042.5,1379.3 1039.2,1377.2 1037.5,1375.8C1035.8,1374.4 1033.4,1372.7 1032.0,1372.0C1023.8,1367.8 1004.3,1348.1 1001.4,1341.0C1000.7,1339.4 998.5,1335.9 996.6,1333.4C994.6,1330.8 993.0,1328.1 993.0,1327.4C993.0,1326.7 991.5,1324.4 989.8,1322.4C988.0,1320.4 985.6,1316.2 984.5,1313.1C982.8,1308.3 982.1,1307.5 979.7,1307.2C977.9,1307.0 976.8,1307.4 976.3,1308.6C975.3,1311.4 977.8,1322.1 980.4,1325.9C981.8,1327.9 983.6,1331.7 984.4,1334.4C985.2,1337.0 987.1,1341.0 988.5,1343.2C990.0,1345.4 992.0,1349.7 993.1,1352.7C994.1,1355.6 995.8,1359.3 996.9,1360.9C998.0,1362.4 999.9,1366.3 1001.1,1369.6C1002.3,1372.8 1004.5,1377.8 1006.0,1380.5C1007.5,1383.2 1009.6,1388.0 1010.5,1391.0C1011.5,1394.0 1013.2,1397.8 1014.2,1399.5C1015.2,1401.1 1016.9,1405.2 1017.9,1408.5C1019.0,1411.8 1021.2,1417.4 1022.9,1421.0C1024.6,1424.6 1026.0,1428.2 1026.0,1429.2C1026.0,1430.1 1026.8,1433.5 1027.9,1436.9C1029.6,1442.2 1029.6,1443.1 1028.3,1445.0C1025.6,1448.8 1022.7,1449.2 1011.0,1447.1C1004.2,1445.9 998.6,1444.3 995.8,1442.7C993.4,1441.3 989.8,1439.7 987.7,1439.0C985.6,1438.4 982.0,1436.3 979.6,1434.5C977.2,1432.7 974.2,1430.7 972.9,1430.0C970.1,1428.6 968.1,1426.8 958.0,1416.7C948.3,1407.0 945.5,1403.4 943.0,1397.5C941.9,1394.9 940.1,1391.6 939.1,1390.1C938.0,1388.7 936.4,1384.8 935.5,1381.5C934.6,1378.2 932.7,1373.6 931.4,1371.3C930.1,1369.1 928.2,1363.5 927.1,1359.1C926.1,1354.6 924.1,1349.3 922.6,1347.2C921.2,1345.1 919.6,1341.0 919.0,1338.1C917.2,1328.4 916.0,1325.0 913.8,1323.9C912.2,1323.0 911.6,1323.1 910.9,1324.1C908.7,1327.6 911.0,1346.6 914.5,1353.3C915.9,1356.1 917.6,1362.1 918.5,1367.4C919.3,1372.4 921.1,1379.7 922.5,1383.4C925.4,1391.1 927.4,1403.7 928.9,1425.0C929.5,1433.0 930.4,1445.5 931.0,1452.9C931.5,1460.3 932.0,1470.0 932.0,1474.6C932.0,1482.0 931.8,1483.0 929.8,1484.4C926.6,1486.7 922.5,1486.4 918.2,1483.6C916.2,1482.2 911.9,1480.5 908.8,1479.7C905.7,1478.9 901.8,1477.3 900.2,1476.1C898.6,1475.0 895.2,1473.2 892.8,1472.1C888.4,1470.2 886.4,1468.6 875.5,1458.0C866.9,1449.7 863.2,1444.8 858.4,1435.4C854.6,1428.2 853.9,1425.5 852.5,1415.3C851.6,1408.8 849.8,1398.8 848.5,1393.0C847.2,1387.2 845.6,1376.0 845.0,1368.0C843.6,1349.6 842.6,1344.0 839.5,1337.4C837.9,1334.0 836.7,1329.1 836.1,1323.3C835.0,1313.0 834.3,1310.8 832.2,1311.2C828.5,1311.9 828.5,1320.4 832.5,1352.5C833.3,1359.1 834.7,1381.8 835.6,1403.0C837.9,1453.0 837.2,1464.1 831.0,1477.5C823.9,1493.1 817.2,1505.3 815.4,1506.3C814.5,1506.8 813.5,1508.3 813.0,1509.6L812.0,1512.0L790.0,1512.0C771.1,1512.0 768.0,1511.8 768.0,1510.5ZM407.5,1408.7C405.3,1407.3 401.0,1405.7 398.0,1405.0C392.0,1403.7 385.5,1400.4 382.7,1397.2C381.6,1396.0 380.7,1392.9 380.3,1388.6C379.8,1382.7 379.5,1382.0 377.6,1382.0C376.4,1382.1 374.4,1382.7 373.0,1383.5C371.6,1384.3 369.3,1384.9 367.8,1385.0C363.7,1385.0 350.1,1380.4 347.6,1378.1C346.4,1377.0 340.8,1373.6 335.0,1370.4C329.2,1367.3 323.9,1364.1 323.2,1363.2C321.7,1361.3 321.6,1356.1 323.0,1352.5C323.6,1351.0 325.6,1348.4 327.5,1346.6C330.1,1344.2 330.8,1342.7 330.4,1341.4C329.1,1337.7 325.1,1333.3 321.8,1331.9C320.0,1331.2 314.6,1327.2 309.9,1323.0C298.7,1313.2 289.5,1306.0 288.2,1306.0C287.6,1306.0 285.1,1304.3 282.6,1302.2C280.1,1300.2 275.5,1296.5 272.4,1294.0C269.4,1291.5 264.9,1287.9 262.6,1286.0C260.2,1284.1 255.2,1280.0 251.5,1277.0C244.6,1271.4 243.4,1270.3 228.4,1256.5C220.5,1249.2 202.5,1231.4 197.4,1225.8C193.4,1221.5 186.5,1215.3 184.8,1214.3C183.8,1213.9 181.0,1211.5 178.5,1209.1C174.9,1205.7 174.0,1204.1 174.0,1201.5C174.0,1197.1 175.3,1193.9 178.5,1190.4C179.9,1188.9 180.9,1187.0 180.8,1186.1C180.6,1185.3 178.0,1183.2 174.9,1181.4C171.8,1179.5 168.5,1176.8 167.5,1175.3C166.5,1173.8 164.0,1170.2 161.9,1167.4C159.7,1164.6 158.0,1161.8 158.0,1161.3C158.0,1160.7 156.4,1157.9 154.5,1155.1C152.6,1152.3 150.2,1148.1 149.3,1145.8C148.4,1143.4 146.7,1140.2 145.5,1138.5C144.3,1136.8 142.5,1133.6 141.5,1131.2C139.0,1125.4 136.8,1125.1 129.5,1129.4C121.6,1134.2 120.7,1134.4 115.8,1132.2C112.4,1130.7 110.9,1129.2 108.6,1124.9C107.0,1121.9 104.2,1117.8 102.3,1115.7C100.5,1113.7 99.0,1111.6 99.0,1111.0C99.0,1110.5 97.6,1108.5 95.8,1106.5C93.5,1103.8 92.6,1101.6 92.2,1098.0C91.8,1093.3 92.0,1092.9 95.4,1089.8C98.5,1087.0 99.0,1086.0 99.0,1082.1C99.0,1078.7 98.4,1077.0 96.5,1075.0C93.6,1072.0 85.6,1056.8 82.9,1049.2C81.9,1046.3 80.2,1042.7 79.2,1041.2C78.1,1039.7 76.3,1035.4 75.1,1031.6C73.9,1027.8 72.1,1023.3 71.1,1021.6C70.0,1019.9 68.2,1015.1 67.0,1011.0C65.8,1006.9 64.0,1002.1 63.0,1000.5C61.9,998.8 60.1,993.9 58.9,989.5C57.7,985.1 55.7,979.1 54.3,976.1C53.0,973.1 51.3,966.7 50.5,961.9C48.6,950.0 45.8,945.0 39.0,941.5C37.4,940.7 35.6,939.0 34.9,937.9C33.9,935.9 32.7,927.0 31.3,911.2L30.7,903.9L37.5,896.9L44.3,889.9L43.5,883.2C42.4,873.4 41.4,815.3 42.2,809.6C43.1,803.6 44.5,802.0 49.8,801.3C55.0,800.6 57.9,801.4 60.8,804.1C63.1,806.2 63.1,806.5 62.5,819.4C61.6,836.7 64.4,885.4 66.5,888.6C67.4,890.0 69.8,891.2 73.2,892.0C80.1,893.6 81.4,894.9 86.2,904.4C89.8,911.6 90.3,913.3 90.7,921.9C91.2,930.6 91.0,932.1 88.6,937.9C85.4,945.8 85.4,945.9 88.4,951.8C89.7,954.4 91.1,958.1 91.5,960.0C91.9,961.9 93.7,966.9 95.5,971.0C97.3,975.1 99.3,981.6 99.9,985.4C100.6,989.2 102.3,994.6 103.7,997.3C105.1,1000.1 107.1,1005.5 108.1,1009.2C109.2,1013.0 111.1,1017.8 112.5,1019.9C113.8,1022.0 115.6,1026.2 116.5,1029.2C117.3,1032.2 119.6,1037.0 121.5,1040.0C123.4,1043.0 125.0,1046.0 125.0,1046.6C125.0,1047.3 126.6,1050.1 128.5,1053.0C130.4,1055.8 132.8,1060.1 133.9,1062.3C134.9,1064.6 137.4,1068.9 139.4,1071.9C141.4,1074.8 143.0,1077.8 143.0,1078.5C143.0,1079.2 143.7,1080.4 144.6,1081.1C145.5,1081.8 148.0,1086.0 150.2,1090.5C158.7,1107.5 160.2,1110.2 163.0,1114.2C164.7,1116.5 166.0,1118.9 166.0,1119.6C166.0,1120.3 167.3,1122.4 168.8,1124.2C170.4,1126.0 172.9,1129.6 174.4,1132.1C175.8,1134.6 178.0,1137.6 179.1,1138.6C180.3,1139.6 182.1,1142.2 183.2,1144.3C184.2,1146.4 185.8,1148.4 186.6,1148.7C187.4,1149.0 188.8,1150.6 189.6,1152.2C191.1,1155.1 194.0,1159.0 204.2,1171.9C214.5,1184.8 253.0,1224.8 265.9,1236.0C268.7,1238.5 272.8,1242.1 274.9,1244.0C283.9,1252.2 295.8,1261.7 302.8,1266.3C305.1,1267.8 307.0,1269.5 307.0,1270.1C307.0,1270.6 308.5,1271.7 310.3,1272.5C312.2,1273.3 315.5,1275.4 317.8,1277.2C320.0,1279.0 323.8,1281.7 326.2,1283.3C332.6,1287.3 337.1,1290.6 340.6,1293.6C342.3,1295.1 345.7,1297.1 348.2,1298.1C350.6,1299.0 354.4,1301.0 356.5,1302.4C358.6,1303.8 360.8,1305.0 361.5,1305.0C362.1,1305.0 363.9,1306.4 365.6,1308.1C369.1,1311.8 382.7,1320.0 389.5,1322.5C392.2,1323.5 396.1,1325.4 398.1,1326.7C400.1,1328.0 404.5,1329.9 407.8,1330.9C411.1,1331.9 415.3,1333.9 417.2,1335.3C419.0,1336.7 422.2,1338.5 424.3,1339.4C426.5,1340.3 429.5,1342.1 431.1,1343.4C432.7,1344.7 435.6,1346.4 437.7,1347.0C439.8,1347.7 443.8,1349.5 446.7,1351.2C449.5,1352.8 454.1,1354.7 456.9,1355.6C462.4,1357.2 464.0,1359.1 464.0,1364.0C464.0,1368.4 462.6,1370.6 458.9,1371.9C452.3,1374.2 439.8,1372.1 432.9,1367.5C430.8,1366.2 426.3,1364.4 422.9,1363.5C419.4,1362.6 415.1,1361.0 413.4,1359.9C411.6,1358.8 407.6,1357.1 404.4,1356.0C401.2,1354.8 396.9,1352.9 395.0,1351.5C393.1,1350.2 389.5,1348.4 387.0,1347.5C384.5,1346.6 381.4,1344.9 380.0,1343.6C376.6,1340.5 368.8,1336.9 363.9,1336.3C360.2,1335.8 359.6,1336.0 355.7,1340.3C350.2,1346.1 348.6,1349.3 349.4,1352.2C350.2,1355.0 356.3,1359.8 365.0,1364.4C371.5,1367.8 381.3,1376.2 382.2,1379.0C382.6,1380.2 383.5,1380.3 387.8,1379.4C392.1,1378.5 393.9,1378.7 400.5,1380.6C404.7,1381.9 410.5,1384.2 413.3,1385.9C416.2,1387.5 420.4,1389.1 422.7,1389.5C428.2,1390.4 431.6,1393.2 432.3,1397.2C432.9,1401.3 431.0,1404.5 427.4,1405.4C425.9,1405.8 423.3,1407.0 421.8,1408.2C417.3,1411.3 412.2,1411.5 407.5,1408.7ZM1148.2,1396.6C1144.2,1394.7 1144.0,1391.8 1147.8,1389.2C1152.7,1385.7 1160.5,1382.2 1167.0,1380.5C1170.5,1379.6 1175.2,1377.8 1177.5,1376.5C1179.7,1375.2 1184.3,1373.2 1187.7,1372.2C1191.0,1371.1 1195.1,1369.3 1196.7,1368.2C1198.4,1367.0 1202.2,1365.2 1205.2,1364.0C1208.3,1362.9 1211.4,1361.2 1212.2,1360.3C1212.9,1359.4 1215.8,1357.6 1218.5,1356.4C1221.2,1355.1 1224.6,1352.7 1226.0,1351.1C1229.3,1347.2 1236.1,1346.1 1238.9,1348.9C1240.1,1350.1 1240.6,1351.7 1240.3,1352.8C1239.7,1355.2 1230.5,1364.0 1228.7,1364.0C1227.9,1364.0 1224.2,1366.0 1220.5,1368.4C1216.8,1370.9 1212.5,1373.2 1210.9,1373.5C1209.4,1373.9 1207.6,1374.8 1206.9,1375.6C1205.3,1377.6 1182.8,1388.7 1178.8,1389.5C1177.0,1389.9 1172.3,1391.7 1168.4,1393.6C1160.0,1397.7 1153.0,1398.7 1148.2,1396.6ZM371.2,1291.0C368.9,1289.4 366.3,1286.8 365.4,1285.3C364.5,1283.7 358.9,1277.8 353.0,1272.0C347.1,1266.2 341.0,1259.5 339.5,1257.0C337.9,1254.5 335.6,1251.4 334.4,1250.0C333.2,1248.6 331.7,1245.9 331.1,1244.0C329.0,1237.4 324.6,1233.3 317.2,1231.0C307.3,1228.0 298.0,1218.8 290.5,1204.8C289.1,1202.1 287.5,1200.0 286.9,1200.0C283.9,1200.0 244.2,1158.3 238.7,1149.4C234.2,1142.0 228.2,1133.7 220.8,1124.6C216.7,1119.6 217.5,1112.2 222.5,1108.0C228.4,1103.1 227.9,1095.8 221.1,1089.1C216.9,1084.9 213.9,1081.1 207.3,1071.6C206.1,1069.9 204.1,1067.2 202.8,1065.6C201.5,1064.0 199.4,1060.8 198.0,1058.5C195.3,1053.9 191.2,1047.5 186.4,1040.2C184.8,1037.6 182.8,1033.9 182.0,1032.0C181.3,1030.1 179.6,1027.0 178.3,1025.2C177.0,1023.5 175.0,1019.5 174.0,1016.5C173.0,1013.5 171.0,1009.2 169.7,1006.8C168.3,1004.4 166.7,1000.7 166.0,998.5C165.3,996.3 163.5,992.0 162.0,989.0C160.5,986.0 158.5,981.0 157.5,978.0C156.5,975.0 154.7,970.4 153.4,967.9C152.2,965.4 150.2,959.5 149.0,954.9C147.9,950.3 146.1,944.5 145.0,942.0C144.0,939.5 142.3,933.8 141.1,929.3C140.0,924.8 138.1,919.2 137.0,917.0C134.1,911.2 131.8,898.6 132.6,892.6C133.6,884.8 139.8,880.8 142.1,886.6C142.6,888.1 144.1,890.5 145.4,892.0C147.1,894.1 148.2,897.8 149.9,907.5C151.1,914.6 153.0,922.0 154.0,924.0C155.0,926.0 156.8,931.3 157.9,935.8C159.0,940.2 161.0,946.0 162.3,948.7C163.7,951.3 165.5,956.2 166.5,959.5C167.4,962.8 169.0,966.9 170.1,968.6C171.2,970.4 172.9,974.3 173.9,977.3C175.0,980.4 177.2,985.5 178.8,988.7C180.5,991.9 183.9,999.0 186.5,1004.5C189.0,1010.0 192.0,1016.3 193.2,1018.5C194.4,1020.7 197.1,1025.8 199.1,1029.9C201.2,1034.0 203.6,1038.0 204.4,1038.9C205.2,1039.8 206.5,1042.3 207.4,1044.4C208.3,1046.6 210.4,1050.2 212.1,1052.4C216.0,1057.7 221.0,1065.3 223.5,1069.9C224.6,1071.9 226.8,1075.5 228.5,1077.9C230.2,1080.3 232.2,1084.4 233.0,1086.9C234.3,1090.8 235.3,1091.9 239.5,1094.3C242.8,1096.1 245.5,1096.9 247.5,1096.6C251.5,1096.1 262.7,1098.7 266.5,1101.0C274.1,1105.7 277.3,1111.5 278.5,1122.3C279.2,1129.6 278.9,1129.3 293.1,1139.7C294.7,1140.9 299.5,1145.2 303.8,1149.4C316.1,1161.4 324.0,1168.2 331.0,1173.0C332.9,1174.3 336.4,1177.0 338.8,1179.0C341.2,1180.9 345.5,1184.4 348.3,1186.7C359.4,1195.8 363.0,1200.1 363.0,1204.5C363.0,1208.8 361.4,1212.9 358.7,1215.8L356.5,1218.2L358.7,1219.8C359.8,1220.8 363.0,1222.7 365.7,1224.3C368.3,1225.8 372.0,1228.1 373.7,1229.3C375.5,1230.5 379.9,1233.3 383.6,1235.5C387.2,1237.7 392.4,1241.0 395.2,1242.7C397.9,1244.5 402.1,1246.8 404.3,1247.9C408.0,1249.5 414.4,1253.4 421.6,1258.4C422.8,1259.3 424.5,1262.0 425.3,1264.5C426.8,1268.8 426.8,1269.0 424.7,1270.5C421.6,1272.7 417.6,1272.3 414.3,1269.6C412.7,1268.2 409.1,1266.3 406.3,1265.2C403.5,1264.1 399.7,1262.1 397.9,1260.8C396.0,1259.4 392.4,1257.3 389.8,1256.2C387.2,1255.1 383.5,1253.0 381.7,1251.6C379.8,1250.2 377.9,1249.0 377.3,1249.0C376.8,1249.0 373.9,1247.3 370.9,1245.1C358.6,1236.4 345.0,1234.4 345.0,1241.4C345.0,1246.8 357.2,1259.9 365.7,1263.8C373.4,1267.2 388.9,1281.8 389.0,1285.6C389.0,1288.0 387.0,1290.0 382.3,1292.4C377.8,1294.7 375.9,1294.4 371.2,1291.0ZM1175.2,1289.4C1172.3,1288.1 1171.9,1285.1 1174.1,1280.8C1176.9,1275.4 1178.4,1274.3 1184.0,1273.4C1188.9,1272.7 1196.5,1269.7 1199.0,1267.6C1199.8,1266.9 1202.2,1265.7 1204.2,1265.1C1206.2,1264.4 1209.8,1262.4 1212.2,1260.6C1214.6,1258.8 1218.2,1256.8 1220.3,1256.1C1222.8,1255.2 1226.9,1251.9 1232.8,1245.9C1237.6,1241.0 1242.4,1236.1 1243.5,1235.0C1248.1,1230.4 1254.8,1225.1 1258.5,1223.2C1260.7,1222.1 1263.4,1220.2 1264.4,1219.1C1265.5,1217.9 1268.0,1216.0 1269.9,1214.9C1273.8,1212.6 1280.0,1205.1 1282.7,1199.5C1284.3,1196.2 1289.0,1193.0 1292.4,1193.0C1293.2,1193.0 1296.3,1192.1 1299.1,1191.0C1303.3,1189.3 1306.8,1186.3 1316.8,1176.2C1323.7,1169.2 1330.4,1161.8 1331.8,1159.8C1333.1,1157.7 1334.6,1156.0 1335.0,1156.0C1335.4,1156.0 1338.0,1153.0 1340.8,1149.2C1354.4,1131.1 1356.6,1128.0 1358.3,1125.0C1360.0,1121.9 1360.2,1121.8 1364.8,1122.4C1371.1,1123.2 1374.0,1126.4 1374.0,1132.6C1374.0,1135.8 1373.4,1137.5 1372.0,1138.8C1368.8,1141.5 1365.8,1144.5 1361.8,1149.2C1346.6,1166.7 1339.5,1174.2 1319.1,1194.0C1291.7,1220.6 1289.9,1222.3 1283.1,1227.5C1280.2,1229.7 1276.0,1233.1 1273.7,1235.1C1271.4,1237.0 1267.9,1239.6 1265.9,1240.8C1264.0,1242.0 1261.5,1243.9 1260.4,1245.1C1258.3,1247.5 1247.8,1253.0 1239.7,1256.0C1236.2,1257.3 1233.8,1258.9 1232.9,1260.6C1232.2,1262.0 1230.2,1263.9 1228.5,1264.7C1226.9,1265.5 1224.3,1267.4 1222.8,1268.7C1219.7,1271.7 1211.7,1276.8 1204.0,1280.8C1201.0,1282.4 1196.3,1285.0 1193.7,1286.5C1189.0,1289.2 1178.4,1290.8 1175.2,1289.4ZM1181.2,1245.0C1177.3,1242.6 1174.5,1236.8 1175.9,1234.2C1177.4,1231.6 1184.0,1225.6 1188.7,1222.7C1191.0,1221.3 1193.1,1219.6 1193.5,1219.0C1193.8,1218.4 1196.5,1216.8 1199.3,1215.4C1202.2,1213.9 1205.5,1211.8 1206.8,1210.7C1208.0,1209.6 1210.6,1207.7 1212.4,1206.6C1217.2,1203.7 1228.7,1195.3 1233.5,1191.2C1235.7,1189.3 1239.1,1186.5 1241.0,1184.9C1263.3,1166.3 1290.5,1139.4 1311.5,1115.0C1314.1,1112.0 1319.6,1106.3 1323.7,1102.4C1331.7,1094.7 1331.4,1095.5 1331.8,1082.1C1332.0,1078.1 1332.6,1077.1 1337.8,1071.8C1343.4,1066.3 1343.9,1066.0 1348.6,1066.0C1351.4,1066.0 1354.3,1065.4 1355.1,1064.8C1357.3,1062.9 1361.7,1055.8 1364.5,1049.4C1365.9,1046.3 1368.3,1042.2 1370.0,1040.4C1371.6,1038.5 1373.0,1036.4 1373.0,1035.7C1373.0,1035.0 1374.6,1032.1 1376.4,1029.2C1378.3,1026.3 1381.2,1021.4 1382.8,1018.2C1384.4,1015.1 1388.4,1007.3 1391.7,1000.9C1395.0,994.6 1398.3,987.6 1399.0,985.4C1399.7,983.3 1401.2,979.7 1402.5,977.5C1403.7,975.3 1405.6,970.6 1406.5,967.0C1407.5,963.4 1409.4,958.4 1410.6,955.8C1411.9,953.3 1413.8,948.1 1414.9,944.3C1415.9,940.5 1417.9,934.9 1419.2,931.9C1420.6,928.9 1422.4,923.2 1423.3,919.1C1425.8,908.4 1432.8,896.0 1436.5,896.0C1438.7,896.0 1442.0,901.0 1442.0,904.5C1442.0,910.0 1439.0,924.1 1436.5,930.3C1435.2,933.5 1433.2,939.5 1432.0,943.6C1430.9,947.7 1428.9,953.2 1427.6,955.8C1426.3,958.4 1424.5,963.0 1423.5,966.0C1422.5,969.0 1420.9,972.9 1419.8,974.7C1418.8,976.4 1416.8,981.1 1415.5,985.1C1414.1,989.0 1411.9,994.1 1410.6,996.4C1409.3,998.7 1407.9,1001.9 1407.6,1003.7C1407.2,1005.4 1405.4,1009.3 1403.5,1012.4C1401.6,1015.5 1399.8,1019.0 1399.5,1020.3C1399.1,1021.5 1397.6,1024.5 1396.2,1027.0C1394.9,1029.5 1392.5,1033.8 1391.0,1036.5C1388.0,1042.1 1383.3,1050.0 1378.4,1057.5C1376.6,1060.2 1374.2,1065.9 1373.0,1070.0C1371.8,1074.1 1370.0,1078.6 1369.0,1080.0C1368.1,1081.4 1366.5,1084.2 1365.5,1086.2C1364.6,1088.2 1362.4,1090.8 1360.7,1092.0C1349.4,1099.3 1337.8,1110.5 1315.0,1136.0C1297.6,1155.5 1269.0,1184.0 1262.0,1188.7C1260.6,1189.6 1257.4,1192.2 1254.9,1194.4C1238.4,1209.0 1224.2,1220.9 1220.0,1223.5C1212.8,1228.0 1203.2,1234.9 1202.5,1236.0C1202.1,1236.6 1199.2,1239.3 1195.9,1242.0C1189.2,1247.6 1186.4,1248.2 1181.2,1245.0ZM346.4,1213.8C347.3,1212.6 348.0,1211.2 348.0,1210.7C348.0,1209.7 336.9,1199.0 335.8,1199.0C335.3,1199.0 333.3,1197.5 331.2,1195.6C323.0,1188.1 319.3,1185.2 314.7,1182.5C312.1,1181.0 309.5,1178.9 308.9,1177.8C308.3,1176.7 305.8,1173.5 303.2,1170.6C300.6,1167.7 295.8,1162.1 292.5,1158.1C284.2,1148.1 279.2,1145.9 273.4,1149.6C267.9,1153.3 266.5,1160.3 270.5,1164.6C271.9,1166.1 273.0,1167.6 273.0,1167.9C273.0,1169.0 286.5,1182.4 290.6,1185.3C293.8,1187.6 295.0,1188.0 298.5,1187.4C301.1,1187.1 304.7,1187.4 308.2,1188.4C313.2,1189.9 313.9,1190.5 315.3,1194.0C316.1,1196.2 317.5,1198.0 318.3,1198.0C320.2,1198.0 322.7,1200.9 323.5,1204.2C323.9,1205.7 325.1,1207.2 326.1,1207.5C327.2,1207.9 328.8,1209.4 329.7,1210.8C332.4,1215.1 334.1,1216.0 339.6,1216.0C343.9,1216.0 345.2,1215.6 346.4,1213.8ZM118.0,1160.8C107.5,1144.7 107.5,1141.2 117.9,1140.2C125.2,1139.5 129.9,1141.4 131.7,1145.8C132.5,1147.8 134.5,1151.3 136.1,1153.6C140.7,1160.3 140.7,1161.9 136.0,1167.8C132.8,1172.0 131.4,1173.0 129.0,1173.0C126.2,1173.0 125.3,1171.9 118.0,1160.8ZM1389.7,1087.8C1386.1,1084.2 1387.3,1078.1 1392.9,1071.0C1395.2,1068.1 1398.0,1064.0 1399.0,1062.0C1400.0,1060.0 1401.6,1057.7 1402.5,1057.0C1403.4,1056.2 1405.3,1053.4 1406.6,1050.7C1408.0,1048.0 1410.5,1044.0 1412.1,1041.7C1413.7,1039.5 1415.0,1037.2 1415.0,1036.6C1415.0,1036.0 1416.6,1033.3 1418.5,1030.6C1420.4,1027.9 1422.4,1024.1 1423.1,1022.1C1423.7,1020.1 1425.3,1016.9 1426.7,1014.9C1428.0,1012.9 1430.0,1008.9 1431.1,1005.9C1432.2,1003.0 1434.2,998.8 1435.5,996.6C1436.8,994.3 1438.6,989.8 1439.5,986.5C1440.4,983.2 1442.2,978.7 1443.5,976.5C1444.7,974.3 1446.5,969.2 1447.4,965.2C1448.3,961.2 1450.1,955.1 1451.5,951.7C1452.8,948.3 1454.7,941.9 1455.5,937.5C1456.4,933.1 1458.3,927.0 1459.6,924.0C1461.1,920.6 1463.2,912.2 1464.9,902.5C1467.4,888.2 1468.0,886.0 1471.0,881.8C1473.6,878.0 1475.0,877.0 1477.1,877.0C1480.9,877.0 1483.0,880.3 1483.0,886.2C1483.0,894.0 1480.0,912.2 1477.9,917.0C1476.8,919.5 1474.8,926.5 1473.5,932.5C1470.0,948.7 1463.7,969.6 1460.2,977.2C1458.4,980.9 1457.0,984.2 1457.0,984.6C1457.0,986.8 1435.5,1031.6 1434.0,1032.5C1433.6,1032.8 1432.9,1034.3 1432.5,1035.9C1432.2,1037.5 1430.5,1041.0 1428.8,1043.6C1427.1,1046.3 1424.4,1051.0 1422.8,1054.0C1421.2,1057.0 1418.0,1062.7 1415.5,1066.5C1413.1,1070.3 1409.8,1075.6 1408.3,1078.1C1404.8,1083.9 1399.1,1088.8 1395.2,1089.6C1392.8,1090.1 1391.6,1089.7 1389.7,1087.8ZM172.8,1084.2C170.2,1081.6 166.9,1076.8 165.5,1073.7C164.0,1070.6 162.4,1067.8 161.9,1067.4C161.4,1067.1 159.4,1063.8 157.6,1060.2C155.7,1056.5 153.1,1051.2 151.7,1048.5C146.8,1039.0 141.2,1026.5 140.0,1022.7C139.4,1020.6 137.8,1017.0 136.5,1014.7C135.2,1012.4 133.6,1008.5 133.0,1006.0C132.4,1003.5 130.5,998.9 129.0,995.8C127.4,992.7 125.4,987.3 124.5,983.8C123.6,980.3 121.8,975.6 120.4,973.3C119.1,971.0 117.3,966.1 116.4,962.3C115.6,958.6 113.3,952.0 111.4,947.7C107.5,938.8 107.3,937.0 109.8,934.7C112.2,932.5 114.8,932.6 118.7,935.0C122.7,937.4 123.5,939.0 125.6,948.1C126.5,952.2 128.1,956.9 129.2,958.7C130.2,960.5 132.0,965.1 133.1,969.1C134.2,973.1 136.2,978.1 137.5,980.4C138.8,982.7 140.6,987.2 141.5,990.5C142.5,993.8 144.3,998.3 145.6,1000.6C146.9,1002.8 148.8,1007.2 149.9,1010.2C150.9,1013.3 153.0,1017.5 154.4,1019.6C155.8,1021.8 157.6,1025.4 158.4,1027.8C159.2,1030.1 161.2,1033.9 162.8,1036.3C164.4,1038.6 166.2,1042.1 166.9,1044.0C167.5,1045.9 169.2,1049.2 170.5,1051.2C171.9,1053.3 174.2,1057.4 175.6,1060.2C177.0,1063.1 179.5,1067.9 181.1,1070.9C184.2,1076.8 184.8,1081.9 182.7,1086.0C180.7,1090.0 178.0,1089.6 172.8,1084.2ZM1532.5,956.8C1534.9,955.0 1535.2,954.2 1534.7,950.8C1534.1,946.2 1531.6,943.0 1528.5,943.0C1525.1,943.0 1523.2,945.1 1521.8,950.4C1520.6,955.0 1520.6,955.3 1522.9,957.1C1525.9,959.6 1529.1,959.5 1532.5,956.8ZM67.9,919.4C72.1,914.0 69.2,909.0 62.0,909.0C58.5,909.0 54.0,911.9 54.0,914.1C54.0,915.8 56.9,920.8 58.2,921.3C61.8,922.8 65.9,921.9 67.9,919.4ZM1533.1,761.0C1539.4,757.7 1540.6,751.6 1535.1,750.4C1527.7,748.7 1526.6,748.3 1525.6,746.8C1524.9,745.7 1525.0,743.9 1525.9,741.1C1526.9,737.5 1527.9,736.6 1532.8,734.1C1535.9,732.5 1539.7,729.6 1541.2,727.6C1544.2,723.8 1548.0,715.1 1548.0,712.0C1548.0,708.5 1543.5,709.5 1539.1,714.0C1536.9,716.2 1534.6,718.0 1534.0,718.0C1533.3,718.0 1530.3,719.6 1527.2,721.5C1523.8,723.5 1518.4,725.6 1514.1,726.6C1510.1,727.5 1504.4,729.3 1501.5,730.5C1498.6,731.8 1490.9,733.8 1484.4,735.0C1477.9,736.1 1469.6,738.0 1466.1,739.1C1462.3,740.2 1451.3,741.8 1439.0,743.0C1427.6,744.1 1413.6,745.9 1407.9,746.9C1393.6,749.5 1386.5,750.0 1349.0,751.0C1318.0,751.8 1311.0,752.5 1311.0,755.0C1311.0,755.6 1312.2,756.5 1313.6,757.0C1320.7,759.7 1403.8,762.0 1470.0,761.3C1496.5,761.1 1516.3,761.3 1519.0,761.8C1526.0,763.3 1528.8,763.2 1533.1,761.0ZM1495.8,658.4C1492.3,656.6 1492.3,654.7 1495.6,652.1C1499.0,649.4 1502.4,649.4 1505.0,652.2C1507.5,654.9 1507.5,656.2 1505.2,658.3C1502.9,660.4 1499.4,660.4 1495.8,658.4ZM1516.2,652.8C1514.6,651.2 1514.7,645.8 1516.2,643.8C1518.3,641.3 1522.3,639.0 1524.7,639.0C1529.6,639.0 1531.9,648.1 1528.0,652.0C1525.7,654.3 1518.2,654.8 1516.2,652.8ZM1364.4,614.1C1365.1,613.0 1363.0,612.1 1361.2,612.8C1360.6,613.0 1360.0,613.6 1360.0,614.1C1360.0,615.3 1363.7,615.3 1364.4,614.1ZM231.6,533.5C232.4,531.4 230.2,529.0 227.4,529.0C224.2,529.0 223.6,530.6 226.0,533.0C228.4,535.4 230.8,535.6 231.6,533.5ZM712.4,519.9C718.6,517.0 715.2,512.0 707.0,512.0C700.6,512.0 697.0,513.4 697.0,515.9C697.0,520.3 706.3,522.6 712.4,519.9ZM240.6,424.8C239.7,423.5 239.0,420.5 239.0,417.9C239.0,413.9 239.7,412.3 243.4,407.3C245.8,404.1 248.5,400.0 249.4,398.2C250.3,396.5 251.5,395.0 252.0,395.0C252.5,395.0 254.4,392.2 256.1,388.8C257.8,385.3 262.5,378.8 266.4,374.3C270.3,369.8 277.6,361.3 282.5,355.5C294.3,341.6 324.5,312.3 339.7,299.8C350.0,291.4 352.0,289.8 359.7,284.0C364.0,280.8 369.3,276.7 371.5,275.0C373.7,273.3 377.7,270.4 380.4,268.7C383.1,266.9 387.9,263.8 390.9,261.8C394.0,259.7 397.8,257.2 399.3,256.3C408.4,250.6 419.0,243.6 422.6,241.0C424.9,239.4 427.0,238.0 427.4,238.0C427.8,238.0 431.0,236.3 434.5,234.1C438.3,231.9 443.4,229.8 446.9,229.1C450.1,228.5 453.9,227.1 455.2,226.1C456.4,225.1 460.0,223.0 463.0,221.5C466.0,220.0 470.0,217.4 471.8,215.9C473.6,214.3 475.6,213.0 476.3,213.0C477.0,213.0 480.3,211.4 483.5,209.4C486.8,207.5 492.2,205.0 495.4,203.9C498.7,202.7 502.6,201.0 504.0,200.0C505.4,199.0 509.5,197.3 513.2,196.2C516.8,195.0 522.2,192.9 525.2,191.4C529.5,189.2 546.1,184.1 549.2,184.0C549.7,184.0 550.9,184.9 552.0,186.0C554.5,188.5 554.6,193.2 552.2,195.2C550.3,197.0 541.2,200.9 529.5,205.1C525.1,206.7 519.9,208.8 518.0,209.9C516.1,210.9 511.8,212.5 508.5,213.5C505.2,214.4 500.6,216.2 498.3,217.5C496.0,218.8 491.8,220.6 489.1,221.5C486.4,222.4 482.5,224.4 480.4,226.1C478.4,227.7 476.2,229.0 475.6,229.0C473.5,229.0 466.8,235.3 465.4,238.6C463.7,242.6 464.1,243.7 470.2,252.5C475.9,260.6 484.6,268.5 491.0,271.3C493.5,272.4 496.5,274.1 497.6,275.2C498.8,276.3 503.3,278.0 507.6,279.1C511.9,280.2 517.3,282.2 519.5,283.6C524.2,286.3 536.3,288.0 552.3,288.0C565.0,288.0 568.5,289.4 570.0,294.9C571.4,300.1 570.1,302.6 565.8,303.3C559.9,304.1 541.4,302.1 536.2,300.1C533.4,299.0 527.2,297.4 522.3,296.5C517.1,295.5 511.5,293.7 508.5,292.1C505.8,290.5 500.8,288.5 497.5,287.6C494.2,286.6 490.4,284.8 489.0,283.6C487.6,282.3 484.1,280.4 481.2,279.2C470.9,275.1 457.5,261.6 454.9,252.9C452.3,244.5 444.3,242.4 438.0,248.4C436.1,250.3 432.4,253.1 429.9,254.7C420.9,260.3 415.8,263.6 411.2,266.7C408.6,268.5 404.6,270.8 402.4,271.9C400.1,272.9 397.9,274.3 397.6,274.9C397.2,275.5 394.5,277.6 391.7,279.5C388.8,281.4 383.8,285.0 380.5,287.5C377.2,290.0 372.6,293.3 370.2,294.9C367.8,296.5 364.9,298.9 363.6,300.2C362.3,301.4 358.5,304.8 355.0,307.5C339.1,320.2 332.9,325.9 313.8,345.5C294.6,365.1 282.0,379.2 282.0,381.0C282.0,381.8 278.7,385.6 270.3,394.2C266.5,398.1 257.0,413.6 257.0,415.8C257.0,416.6 254.7,419.4 252.0,422.1C246.4,427.6 243.1,428.4 240.6,424.8ZM1334.5,419.8C1330.9,414.6 1327.9,410.3 1325.4,406.5C1323.9,404.3 1321.1,400.6 1319.1,398.3C1317.1,395.9 1313.9,392.2 1312.0,389.9C1310.1,387.6 1307.8,384.5 1307.0,383.0C1305.0,379.3 1300.7,374.0 1293.8,366.8L1288.2,360.9L1282.2,361.6C1274.7,362.4 1269.3,360.8 1267.9,357.3C1267.4,356.0 1267.0,351.7 1267.0,347.9L1267.0,340.9L1260.2,334.4C1256.5,330.9 1251.9,326.6 1250.0,325.0C1248.1,323.3 1244.4,320.2 1241.9,318.0C1239.3,315.8 1235.9,312.9 1234.2,311.7C1224.5,304.7 1215.4,298.2 1212.4,296.4C1210.5,295.3 1207.7,293.2 1206.2,291.8C1204.7,290.4 1201.7,288.3 1199.4,287.2C1197.2,286.1 1194.7,284.4 1194.0,283.5C1193.2,282.6 1190.5,280.8 1188.0,279.5C1185.5,278.2 1182.8,276.4 1182.0,275.5C1181.3,274.6 1179.3,273.2 1177.6,272.3C1175.9,271.5 1172.7,269.3 1170.5,267.5C1168.3,265.7 1164.7,263.4 1162.4,262.2C1160.2,261.1 1157.8,259.4 1157.0,258.6C1156.3,257.7 1154.3,256.3 1152.6,255.5C1150.9,254.7 1147.3,252.2 1144.6,250.0C1137.0,243.7 1131.6,244.9 1127.0,253.9C1122.5,262.8 1108.8,275.7 1099.7,279.5C1097.7,280.3 1094.0,282.3 1091.5,283.9C1088.9,285.5 1084.5,287.4 1081.7,288.1C1078.8,288.7 1073.9,290.6 1070.8,292.1C1067.0,294.0 1061.7,295.5 1054.9,296.5C1049.3,297.4 1039.7,299.4 1033.5,301.0C1022.0,304.1 1019.0,304.1 1016.3,300.8C1015.4,299.7 1015.7,298.2 1017.8,294.0C1020.9,287.7 1021.0,287.6 1037.5,286.2C1045.9,285.4 1050.3,284.5 1056.2,282.1C1060.4,280.4 1064.7,279.0 1065.8,279.0C1066.9,279.0 1071.1,277.3 1075.2,275.1C1079.2,273.0 1083.6,270.9 1085.0,270.5C1095.3,267.5 1116.0,248.8 1116.0,242.5C1116.0,239.5 1110.6,232.2 1106.8,230.2C1105.1,229.2 1102.5,227.5 1100.9,226.2C1099.4,224.9 1095.3,222.8 1091.8,221.4C1088.4,220.0 1084.5,218.0 1083.2,217.0C1081.9,216.0 1078.5,214.4 1075.7,213.4C1072.8,212.5 1068.5,210.6 1066.2,209.2C1063.8,207.8 1058.4,205.7 1054.2,204.5C1046.1,202.1 1032.1,196.2 1029.5,194.0C1027.5,192.3 1027.6,188.7 1029.8,186.2L1031.5,184.2L1042.1,186.9C1048.0,188.4 1054.2,190.7 1055.9,191.9C1057.7,193.2 1061.8,195.0 1065.2,196.1C1068.5,197.1 1072.9,199.0 1074.9,200.4C1076.9,201.7 1081.2,203.6 1084.4,204.5C1087.6,205.5 1092.3,207.5 1094.8,209.1C1097.2,210.6 1100.6,212.2 1102.2,212.6C1106.4,213.5 1139.6,230.8 1143.7,234.1C1144.4,234.7 1147.6,236.5 1150.7,238.0C1153.9,239.5 1157.1,241.4 1157.8,242.2C1158.5,243.1 1160.5,244.4 1162.3,245.1C1164.1,245.8 1167.5,247.8 1170.0,249.5C1172.5,251.3 1176.0,253.5 1177.8,254.4C1179.7,255.4 1183.1,257.6 1185.5,259.3C1187.9,261.1 1192.3,264.2 1195.2,266.3C1198.1,268.4 1202.5,271.5 1204.9,273.3C1207.3,275.1 1211.0,277.6 1213.1,279.0C1227.2,288.3 1229.0,289.7 1241.0,300.0C1248.0,306.0 1253.5,310.6 1255.6,312.0C1276.1,326.2 1309.6,358.9 1328.5,382.9C1331.2,386.4 1334.9,390.9 1336.6,392.9C1338.3,394.9 1340.5,397.9 1341.4,399.7C1342.3,401.5 1343.9,403.4 1344.9,403.9C1349.0,406.1 1350.4,416.6 1347.0,420.0C1344.1,422.9 1336.6,422.8 1334.5,419.8ZM208.6,394.4C207.7,393.6 207.0,391.7 207.0,390.2C207.0,386.0 209.0,379.9 210.6,379.3C211.4,379.0 215.0,374.4 218.7,369.1C222.4,363.8 229.1,355.2 233.7,350.0C238.2,344.8 243.3,338.9 244.9,337.0C251.6,328.8 257.3,322.6 271.4,308.1C279.5,299.6 287.8,290.2 289.8,287.1C291.7,284.0 294.3,280.5 295.4,279.4C296.6,278.2 298.5,276.1 299.7,274.6C300.9,273.2 302.3,272.0 302.9,272.0C304.2,272.0 307.3,275.0 308.8,277.6C309.6,279.1 311.4,279.6 316.6,280.0C320.3,280.3 323.5,281.0 323.7,281.6C324.0,282.5 320.0,287.3 313.2,294.2C307.8,299.7 295.8,310.7 293.4,312.4C276.7,323.8 272.9,327.6 251.7,353.8C249.7,356.4 244.9,361.9 241.0,366.0C234.6,372.9 230.9,378.1 224.2,389.8C222.9,392.2 220.7,394.6 219.3,395.1C215.6,396.5 210.3,396.2 208.6,394.4ZM1363.6,389.2C1361.2,386.6 1357.9,382.7 1356.4,380.5C1353.4,376.0 1348.6,370.2 1343.7,365.2C1340.1,361.5 1336.5,356.7 1331.9,349.8C1330.2,347.1 1328.5,345.0 1328.0,345.0C1327.6,345.0 1326.0,343.2 1324.6,340.9C1323.1,338.7 1319.0,333.8 1315.6,330.2C1312.2,326.5 1306.5,320.4 1302.9,316.5C1296.6,309.6 1283.6,298.0 1274.5,291.0C1272.0,289.1 1268.2,286.1 1266.2,284.5C1264.2,282.8 1261.3,280.6 1259.8,279.7C1258.3,278.8 1253.3,274.7 1248.6,270.7C1234.5,258.7 1231.6,256.4 1229.0,255.0C1227.6,254.3 1224.9,252.3 1222.8,250.6C1220.8,248.9 1217.5,246.9 1215.3,246.1C1213.2,245.4 1210.2,243.5 1208.5,242.0C1206.8,240.4 1203.6,238.7 1201.2,238.0C1198.9,237.4 1195.5,235.6 1193.7,234.1C1192.0,232.5 1188.8,230.5 1186.7,229.7C1182.7,228.0 1176.2,223.0 1170.0,216.8C1167.9,214.8 1165.0,212.5 1163.4,211.7C1161.8,210.9 1159.6,209.3 1158.6,208.1C1157.6,207.0 1154.2,205.1 1151.2,204.0C1148.2,202.8 1144.5,201.1 1143.1,200.1C1141.7,199.2 1138.4,197.6 1135.8,196.6C1133.2,195.7 1129.4,193.7 1127.3,192.3C1125.2,190.9 1121.2,188.9 1118.4,188.0C1115.6,187.0 1111.5,185.1 1109.4,183.7C1107.2,182.3 1103.5,180.6 1101.0,180.0C1098.6,179.3 1094.0,177.5 1090.9,176.0C1087.8,174.4 1082.4,172.4 1078.9,171.6C1075.4,170.8 1069.9,169.0 1066.8,167.6C1063.7,166.2 1057.4,164.4 1052.8,163.5C1042.3,161.5 1024.1,154.7 1021.7,151.8C1020.5,150.3 1020.0,148.4 1020.2,145.6C1020.5,141.7 1020.6,141.5 1024.2,141.2C1026.6,141.0 1030.1,141.8 1033.7,143.4C1036.9,144.7 1042.5,146.4 1046.2,146.9C1049.8,147.5 1055.2,149.1 1058.2,150.5C1061.1,151.8 1067.3,153.8 1072.0,154.9C1076.7,156.0 1082.5,158.0 1085.0,159.4C1087.5,160.7 1091.5,162.4 1094.0,163.0C1096.5,163.6 1100.4,165.3 1102.8,166.7C1105.2,168.0 1109.5,170.0 1112.4,171.0C1115.3,172.0 1119.5,173.9 1121.6,175.2C1123.7,176.6 1127.3,178.3 1129.5,179.0C1131.7,179.7 1136.1,181.6 1139.3,183.2C1142.6,184.8 1149.0,187.5 1153.6,189.1C1162.1,192.1 1170.3,196.1 1172.8,198.5C1173.6,199.2 1174.3,201.7 1174.5,204.1C1174.7,206.5 1174.9,209.1 1174.9,209.8C1175.0,210.5 1176.7,211.8 1178.8,212.7C1180.8,213.5 1184.0,215.5 1185.7,217.1C1187.5,218.6 1190.8,220.4 1193.1,221.0C1195.4,221.6 1198.4,223.4 1199.9,224.9C1201.3,226.5 1204.9,228.5 1207.7,229.5C1210.6,230.4 1213.8,232.2 1214.8,233.4C1217.4,236.8 1220.3,238.0 1225.9,238.0C1232.8,238.0 1235.3,239.2 1242.9,246.1C1246.5,249.5 1251.5,253.3 1254.0,254.6C1261.4,258.7 1268.8,264.5 1281.0,275.9C1287.3,281.8 1295.2,289.0 1298.5,291.9C1301.8,294.7 1306.1,298.4 1308.0,300.0C1331.3,320.1 1339.0,328.8 1340.5,336.8C1340.8,338.8 1341.8,341.5 1342.6,342.8C1344.0,344.9 1344.7,345.1 1353.0,344.9C1358.7,344.7 1362.4,345.1 1363.3,345.8C1365.0,347.3 1374.0,362.3 1374.0,363.8C1374.0,364.3 1375.6,366.7 1377.5,369.0C1380.4,372.5 1381.0,374.0 1381.0,378.0C1381.0,382.6 1380.6,383.3 1375.7,388.5C1372.7,391.5 1369.8,394.0 1369.2,394.0C1368.6,394.0 1366.1,391.9 1363.6,389.2ZM190.0,364.6C188.6,363.8 186.7,362.9 185.7,362.6C184.7,362.3 183.1,360.1 182.0,357.8C180.9,355.4 178.9,352.0 177.5,350.1C175.3,347.2 175.0,345.6 175.0,339.0C175.0,329.4 176.3,327.7 183.2,328.6C190.8,329.6 196.0,325.8 196.0,319.1C196.0,314.1 189.7,312.4 182.5,315.4C179.4,316.7 179.0,316.7 177.4,314.8C173.2,310.2 177.2,299.8 187.5,288.5C205.3,268.9 214.9,259.1 224.1,251.0C227.0,248.5 230.9,244.9 233.0,243.0C242.9,233.7 256.0,222.7 260.7,219.7C263.0,218.2 265.1,216.6 265.5,216.0C265.9,215.4 268.5,213.8 271.4,212.4C274.3,211.0 278.4,208.2 280.5,206.0C283.6,202.8 284.4,201.3 284.8,197.0C285.2,192.5 285.7,191.5 288.4,189.9C290.1,188.9 292.5,188.0 293.8,188.0C296.1,188.0 302.8,194.1 307.1,200.1C310.6,205.0 314.1,203.9 323.5,194.9C326.4,192.1 331.4,188.8 335.5,186.9C339.3,185.2 343.0,183.0 343.7,182.1C345.6,179.6 345.2,175.3 342.8,170.9L340.5,166.9L346.0,162.1C349.5,159.0 353.4,156.6 356.8,155.5C359.8,154.6 365.0,151.8 368.4,149.3C375.2,144.2 381.4,141.1 384.6,141.0C385.9,141.0 388.5,143.2 392.0,147.5C398.1,155.1 400.0,156.4 404.0,155.5C407.4,154.7 412.0,151.4 412.0,149.6C412.0,148.9 409.6,147.6 406.8,146.6C403.9,145.6 400.9,144.0 400.2,143.2C398.9,141.5 398.6,134.2 399.8,132.4C401.0,130.6 412.1,123.9 416.4,122.4C418.6,121.6 423.1,119.4 426.5,117.6C429.8,115.8 433.6,113.9 435.0,113.5C436.4,113.2 440.7,111.2 444.7,109.2C451.4,105.9 452.1,105.7 455.8,106.8C457.9,107.5 461.4,109.6 463.4,111.6C466.9,115.0 467.5,115.2 471.8,114.6C474.3,114.3 479.5,112.2 483.4,110.1C487.3,108.0 492.6,105.7 495.0,105.0C497.5,104.3 502.2,102.5 505.6,100.9C508.9,99.3 515.0,97.3 519.1,96.5C523.2,95.8 528.6,94.2 531.2,93.0C540.2,89.1 544.6,90.2 548.5,97.4C550.2,100.5 550.2,101.0 548.8,103.2C547.1,105.7 538.4,110.4 527.5,114.6C522.2,116.7 518.5,117.3 512.0,117.5C507.3,117.6 502.1,118.3 500.5,119.0C498.9,119.8 494.1,121.6 490.0,123.0C483.7,125.1 482.1,126.1 479.7,129.6C476.9,133.6 476.9,133.8 478.4,136.8C482.9,145.5 478.1,151.1 463.5,154.2C460.8,154.7 454.8,157.0 450.4,159.1C445.9,161.2 441.7,163.0 440.9,163.0C439.6,163.0 420.9,171.7 416.0,174.6C414.6,175.5 410.3,177.6 406.5,179.4C402.6,181.3 398.9,183.4 398.2,184.3C397.4,185.2 394.1,187.3 390.7,189.0C378.4,195.2 371.7,199.0 369.6,200.8C368.4,201.8 365.7,203.7 363.5,205.0C361.3,206.3 358.0,208.6 356.2,210.2C354.4,211.7 352.3,213.0 351.6,213.0C350.8,213.0 349.2,214.1 347.9,215.5C346.6,217.0 343.4,219.2 340.9,220.5C338.4,221.8 334.4,224.4 331.9,226.4C320.2,235.7 317.7,237.7 314.2,240.6C312.2,242.3 308.8,244.9 306.7,246.3C304.7,247.7 301.5,250.0 299.7,251.5C298.0,252.9 295.1,255.1 293.3,256.3C287.6,260.2 279.6,266.7 274.5,271.6C271.8,274.2 264.1,281.3 257.5,287.4C234.4,308.7 218.0,326.0 214.5,333.0C213.6,334.9 212.0,337.4 211.0,338.5C210.0,339.6 208.5,343.0 207.6,346.0C205.7,352.8 197.3,365.4 194.5,365.7C193.4,365.9 191.4,365.3 190.0,364.6ZM1389.4,352.8C1387.3,351.0 1384.1,347.2 1382.3,344.5C1380.4,341.8 1377.3,337.2 1375.4,334.5C1371.0,328.4 1352.9,308.0 1348.6,304.4C1346.9,302.9 1340.1,296.6 1333.5,290.4C1326.9,284.2 1319.4,277.1 1316.7,274.8C1314.1,272.4 1309.8,268.6 1307.2,266.2C1295.8,255.9 1288.0,249.6 1281.9,245.7C1279.5,244.2 1274.8,241.0 1271.5,238.5C1268.2,236.0 1263.3,232.8 1260.6,231.3C1257.9,229.7 1254.3,227.3 1252.6,225.9C1250.9,224.4 1247.7,222.3 1245.4,221.2C1243.2,220.1 1240.7,218.4 1240.0,217.5C1239.2,216.6 1236.1,214.6 1233.1,213.0C1230.0,211.5 1226.6,209.2 1225.5,208.0C1224.4,206.8 1221.9,205.0 1219.9,204.0C1218.0,203.0 1215.7,201.4 1215.0,200.5C1214.2,199.6 1211.3,197.7 1208.6,196.3C1205.8,194.9 1202.7,193.1 1201.8,192.3C1200.8,191.4 1196.6,189.0 1192.3,186.8C1178.0,179.5 1171.6,176.0 1164.0,171.5C1159.9,169.0 1153.7,165.7 1150.3,164.0C1147.0,162.4 1142.5,159.9 1140.4,158.5C1138.4,157.1 1134.5,155.3 1131.9,154.6C1129.2,153.8 1125.2,152.0 1122.8,150.7C1120.4,149.3 1115.8,147.4 1112.5,146.5C1109.2,145.6 1104.9,143.9 1102.8,142.9C1100.7,141.8 1095.7,139.8 1091.8,138.3C1087.8,136.9 1083.6,135.1 1082.4,134.4C1081.3,133.6 1073.4,130.8 1064.9,128.0C1048.5,122.8 1045.0,121.0 1045.0,118.1C1045.0,115.1 1051.3,106.1 1054.0,105.2C1057.0,104.1 1066.3,106.1 1071.8,108.9C1073.8,109.9 1078.9,111.8 1083.0,113.0C1087.1,114.2 1093.0,116.5 1096.0,118.0C1099.0,119.5 1104.1,121.5 1107.3,122.4C1110.5,123.3 1115.7,125.4 1118.8,127.0C1121.9,128.5 1126.3,130.3 1128.5,130.9C1130.7,131.5 1134.1,133.0 1136.0,134.3C1137.9,135.6 1142.1,137.7 1145.3,138.8C1148.4,140.0 1152.7,142.1 1154.8,143.4C1156.8,144.7 1160.2,146.3 1162.3,147.0C1164.4,147.6 1166.6,149.1 1167.3,150.2C1168.9,152.8 1175.2,156.0 1178.7,156.0C1180.2,156.0 1182.8,155.1 1184.5,154.0C1186.2,152.9 1189.2,152.0 1191.3,152.0C1194.9,152.0 1202.7,155.3 1208.1,159.1C1209.5,160.1 1213.1,161.9 1216.1,163.0C1219.1,164.2 1222.5,166.1 1223.8,167.3C1226.0,169.3 1231.3,172.5 1242.5,178.5C1250.1,182.6 1257.8,188.1 1259.4,190.5C1263.0,196.1 1270.4,194.3 1274.4,187.0C1275.8,184.4 1277.8,181.9 1278.8,181.5C1283.3,179.6 1286.3,179.2 1288.4,180.0C1289.7,180.5 1298.2,188.0 1307.2,196.7C1316.3,205.4 1328.6,216.7 1334.6,221.8C1340.6,226.9 1347.4,232.7 1349.8,234.8C1354.8,239.1 1389.2,273.5 1394.8,279.7C1409.4,296.1 1413.3,300.8 1417.9,308.1C1420.1,311.7 1422.0,315.5 1422.0,316.4C1422.0,318.5 1413.4,334.7 1410.5,338.0C1409.3,339.4 1407.1,342.6 1405.7,345.1C1402.9,350.1 1396.8,356.0 1394.5,356.0C1393.7,356.0 1391.4,354.5 1389.4,352.8ZM325.2,276.8C325.4,274.1 326.1,273.3 328.8,272.4C330.6,271.9 333.3,270.0 334.8,268.2C336.4,266.3 338.6,265.0 340.4,264.8C344.3,264.4 344.8,266.5 341.2,268.4C339.6,269.2 337.2,271.2 335.8,272.7C332.4,276.7 329.8,278.7 327.2,279.5C325.0,280.1 324.9,279.9 325.2,276.8ZM366.6,244.1C365.5,242.3 367.3,240.0 370.3,239.2C372.7,238.6 373.6,237.6 374.2,235.2C374.7,233.3 376.1,231.5 377.8,230.6C379.3,229.8 381.6,228.0 383.0,226.5C384.4,225.0 388.1,222.5 391.2,220.9C394.3,219.3 397.1,217.6 397.5,217.0C397.9,216.4 400.2,214.8 402.8,213.5C405.4,212.1 409.6,209.5 412.1,207.7C420.2,202.1 431.5,195.6 445.5,188.6C449.4,186.7 454.0,184.0 455.9,182.6C457.8,181.2 459.9,180.0 460.4,180.0C461.0,180.0 464.9,177.9 469.0,175.5C473.1,173.0 477.2,171.0 478.1,171.0C479.1,171.0 482.8,169.4 486.4,167.5C490.0,165.6 495.1,163.5 497.7,162.9C500.4,162.3 505.0,160.4 508.0,158.9C511.0,157.3 516.6,155.1 520.5,154.0C524.4,153.0 530.9,151.0 535.0,149.6C548.2,145.3 558.5,142.9 560.3,143.6C561.3,143.9 562.8,145.6 563.6,147.2C565.8,151.5 563.7,154.4 556.6,156.4C553.6,157.3 549.0,159.1 546.3,160.4C543.7,161.7 539.0,163.3 536.0,164.0C533.0,164.7 528.2,166.5 525.5,168.0C522.8,169.6 517.8,171.6 514.5,172.5C511.2,173.5 507.3,175.1 505.8,176.2C504.3,177.2 500.5,179.0 497.3,180.1C491.5,182.0 484.9,185.0 466.8,194.1C456.8,199.1 453.5,201.0 441.9,208.6C438.3,211.0 434.9,213.0 434.4,213.0C433.9,213.0 431.2,214.6 428.5,216.6C425.7,218.5 422.1,220.7 420.4,221.4C418.7,222.2 415.6,223.9 413.4,225.3C411.2,226.6 404.9,229.7 399.5,232.0C386.8,237.3 385.3,237.8 380.7,238.5C378.6,238.8 375.5,240.4 373.6,242.0C370.2,245.0 367.6,245.8 366.6,244.1ZM1231.5,155.3C1229.8,154.4 1226.9,152.3 1224.9,150.5C1222.9,148.7 1220.2,146.9 1218.9,146.5C1215.3,145.3 1202.3,136.3 1201.6,134.5C1201.3,133.6 1201.7,131.3 1202.5,129.4C1203.8,126.3 1204.2,126.0 1208.2,126.0C1211.2,126.0 1213.7,126.8 1216.2,128.5C1218.2,129.9 1220.2,131.0 1220.6,131.0C1221.0,131.0 1222.7,132.1 1224.4,133.4C1226.1,134.7 1229.8,136.9 1232.7,138.4C1238.2,141.1 1243.0,146.8 1243.0,150.6C1243.0,153.2 1239.0,157.0 1236.4,157.0C1235.4,156.9 1233.2,156.2 1231.5,155.3ZM432.9,143.2C435.6,141.2 436.6,138.9 435.7,136.5C435.1,135.2 434.3,135.3 421.3,139.7C417.0,141.2 415.0,143.7 417.2,145.2C419.4,146.7 430.1,145.4 432.9,143.2Z"/></svg>